<svg xmlns="http://www.w3.org/2000/svg" xmlns:xlink="http://www.w3.org/1999/xlink" zoomAndPan="magnify" preserveAspectRatio="xMidYMid meet" version="1.0" viewBox="51.05 233.82 653.38 251"><defs><g/><clipPath id="9ab4eaa810"><path d="M 330.8125 252.796875 L 432 252.796875 L 432 420 L 330.8125 420 Z M 330.8125 252.796875 " clip-rule="nonzero"/></clipPath><clipPath id="4dd9ee36ee"><path d="M 330.8125 372.355469 L 330.8125 299.917969 C 330.8125 284.863281 340.886719 271.671875 355.410156 267.703125 L 407.382812 253.507812 C 413.238281 251.910156 419.503906 253.132812 424.324219 256.816406 C 429.148438 260.5 431.980469 266.222656 431.980469 272.289062 L 431.980469 399.984375 C 431.980469 406.054688 429.148438 411.777344 424.324219 415.457031 C 419.503906 419.140625 413.238281 420.363281 407.382812 418.765625 L 355.410156 404.570312 C 340.886719 400.605469 330.8125 387.410156 330.8125 372.355469 Z M 330.8125 372.355469 " clip-rule="nonzero"/></clipPath><radialGradient gradientTransform="matrix(1.333333, 0, 0, 1.333333, -0.000031638, 0.00000877845)" gradientUnits="userSpaceOnUse" r="194.939413" cx="6.030176" id="2103642c33" cy="0" fx="6.030176" fy="0"><stop stop-opacity="1" stop-color="rgb(2.720642%, 5.528259%, 25.999451%)" offset="0"/><stop stop-opacity="1" stop-color="rgb(2.774048%, 5.599976%, 26.252747%)" offset="0.0078125"/><stop stop-opacity="1" stop-color="rgb(2.838135%, 5.686951%, 26.556396%)" offset="0.0195312"/><stop stop-opacity="1" stop-color="rgb(2.903748%, 5.773926%, 26.860046%)" offset="0.03125"/><stop stop-opacity="1" stop-color="rgb(2.967834%, 5.859375%, 27.163696%)" offset="0.0429688"/><stop stop-opacity="1" stop-color="rgb(3.031921%, 5.94635%, 27.467346%)" offset="0.0546875"/><stop stop-opacity="1" stop-color="rgb(3.096008%, 6.033325%, 27.76947%)" offset="0.0664062"/><stop stop-opacity="1" stop-color="rgb(3.161621%, 6.1203%, 28.07312%)" offset="0.078125"/><stop stop-opacity="1" stop-color="rgb(3.225708%, 6.207275%, 28.37677%)" offset="0.0898438"/><stop stop-opacity="1" stop-color="rgb(3.289795%, 6.29425%, 28.68042%)" offset="0.101562"/><stop stop-opacity="1" stop-color="rgb(3.353882%, 6.3797%, 28.98407%)" offset="0.113281"/><stop stop-opacity="1" stop-color="rgb(3.419495%, 6.466675%, 29.28772%)" offset="0.125"/><stop stop-opacity="1" stop-color="rgb(3.483582%, 6.55365%, 29.59137%)" offset="0.136719"/><stop stop-opacity="1" stop-color="rgb(3.547668%, 6.640625%, 29.89502%)" offset="0.148438"/><stop stop-opacity="1" stop-color="rgb(3.611755%, 6.7276%, 30.198669%)" offset="0.160156"/><stop stop-opacity="1" stop-color="rgb(3.675842%, 6.814575%, 30.502319%)" offset="0.171875"/><stop stop-opacity="1" stop-color="rgb(3.741455%, 6.900024%, 30.805969%)" offset="0.183594"/><stop stop-opacity="1" stop-color="rgb(3.805542%, 6.987%, 31.109619%)" offset="0.195312"/><stop stop-opacity="1" stop-color="rgb(3.869629%, 7.073975%, 31.411743%)" offset="0.207031"/><stop stop-opacity="1" stop-color="rgb(3.933716%, 7.16095%, 31.715393%)" offset="0.21875"/><stop stop-opacity="1" stop-color="rgb(3.999329%, 7.247925%, 32.019043%)" offset="0.230469"/><stop stop-opacity="1" stop-color="rgb(4.063416%, 7.3349%, 32.322693%)" offset="0.242188"/><stop stop-opacity="1" stop-color="rgb(4.116821%, 7.406616%, 32.575989%)" offset="0.253906"/><stop stop-opacity="1" stop-color="rgb(4.159546%, 7.4646%, 32.778931%)" offset="0.261719"/><stop stop-opacity="1" stop-color="rgb(4.202271%, 7.522583%, 32.980347%)" offset="0.269531"/><stop stop-opacity="1" stop-color="rgb(4.246521%, 7.580566%, 33.183289%)" offset="0.277344"/><stop stop-opacity="1" stop-color="rgb(4.289246%, 7.63855%, 33.38623%)" offset="0.285156"/><stop stop-opacity="1" stop-color="rgb(4.33197%, 7.696533%, 33.587646%)" offset="0.292969"/><stop stop-opacity="1" stop-color="rgb(4.374695%, 7.754517%, 33.790588%)" offset="0.300781"/><stop stop-opacity="1" stop-color="rgb(4.417419%, 7.810974%, 33.992004%)" offset="0.308594"/><stop stop-opacity="1" stop-color="rgb(4.460144%, 7.868958%, 34.194946%)" offset="0.316406"/><stop stop-opacity="1" stop-color="rgb(4.504395%, 7.926941%, 34.397888%)" offset="0.324219"/><stop stop-opacity="1" stop-color="rgb(4.547119%, 7.984924%, 34.599304%)" offset="0.332031"/><stop stop-opacity="1" stop-color="rgb(4.589844%, 8.042908%, 34.802246%)" offset="0.339844"/><stop stop-opacity="1" stop-color="rgb(4.632568%, 8.100891%, 35.003662%)" offset="0.347656"/><stop stop-opacity="1" stop-color="rgb(4.675293%, 8.158875%, 35.206604%)" offset="0.355469"/><stop stop-opacity="1" stop-color="rgb(4.718018%, 8.216858%, 35.409546%)" offset="0.363281"/><stop stop-opacity="1" stop-color="rgb(4.762268%, 8.274841%, 35.610962%)" offset="0.371094"/><stop stop-opacity="1" stop-color="rgb(4.804993%, 8.331299%, 35.813904%)" offset="0.378906"/><stop stop-opacity="1" stop-color="rgb(4.847717%, 8.389282%, 36.01532%)" offset="0.386719"/><stop stop-opacity="1" stop-color="rgb(4.890442%, 8.447266%, 36.218262%)" offset="0.394531"/><stop stop-opacity="1" stop-color="rgb(4.933167%, 8.505249%, 36.421204%)" offset="0.402344"/><stop stop-opacity="1" stop-color="rgb(4.975891%, 8.563232%, 36.62262%)" offset="0.410156"/><stop stop-opacity="1" stop-color="rgb(5.020142%, 8.621216%, 36.825562%)" offset="0.417969"/><stop stop-opacity="1" stop-color="rgb(5.062866%, 8.679199%, 37.026978%)" offset="0.425781"/><stop stop-opacity="1" stop-color="rgb(5.105591%, 8.737183%, 37.229919%)" offset="0.433594"/><stop stop-opacity="1" stop-color="rgb(5.148315%, 8.795166%, 37.432861%)" offset="0.441406"/><stop stop-opacity="1" stop-color="rgb(5.19104%, 8.851624%, 37.634277%)" offset="0.449219"/><stop stop-opacity="1" stop-color="rgb(5.233765%, 8.909607%, 37.837219%)" offset="0.457031"/><stop stop-opacity="1" stop-color="rgb(5.276489%, 8.96759%, 38.040161%)" offset="0.464844"/><stop stop-opacity="1" stop-color="rgb(5.32074%, 9.025574%, 38.241577%)" offset="0.472656"/><stop stop-opacity="1" stop-color="rgb(5.363464%, 9.083557%, 38.444519%)" offset="0.480469"/><stop stop-opacity="1" stop-color="rgb(5.406189%, 9.141541%, 38.645935%)" offset="0.488281"/><stop stop-opacity="1" stop-color="rgb(5.448914%, 9.199524%, 38.848877%)" offset="0.496094"/><stop stop-opacity="1" stop-color="rgb(5.502319%, 9.27124%, 39.102173%)" offset="0.503906"/><stop stop-opacity="1" stop-color="rgb(5.567932%, 9.358215%, 39.404297%)" offset="0.515625"/><stop stop-opacity="1" stop-color="rgb(5.632019%, 9.443665%, 39.707947%)" offset="0.527344"/><stop stop-opacity="1" stop-color="rgb(5.696106%, 9.53064%, 40.011597%)" offset="0.539062"/><stop stop-opacity="1" stop-color="rgb(5.760193%, 9.617615%, 40.315247%)" offset="0.550781"/><stop stop-opacity="1" stop-color="rgb(5.82428%, 9.70459%, 40.618896%)" offset="0.5625"/><stop stop-opacity="1" stop-color="rgb(5.889893%, 9.791565%, 40.922546%)" offset="0.574219"/><stop stop-opacity="1" stop-color="rgb(5.953979%, 9.87854%, 41.226196%)" offset="0.585938"/><stop stop-opacity="1" stop-color="rgb(6.018066%, 9.963989%, 41.529846%)" offset="0.597656"/><stop stop-opacity="1" stop-color="rgb(6.082153%, 10.050964%, 41.833496%)" offset="0.609375"/><stop stop-opacity="1" stop-color="rgb(6.147766%, 10.137939%, 42.137146%)" offset="0.621094"/><stop stop-opacity="1" stop-color="rgb(6.201172%, 10.211182%, 42.390442%)" offset="0.632812"/><stop stop-opacity="1" stop-color="rgb(6.243896%, 10.269165%, 42.591858%)" offset="0.640625"/><stop stop-opacity="1" stop-color="rgb(6.286621%, 10.327148%, 42.7948%)" offset="0.648438"/><stop stop-opacity="1" stop-color="rgb(6.329346%, 10.383606%, 42.996216%)" offset="0.65625"/><stop stop-opacity="1" stop-color="rgb(6.373596%, 10.441589%, 43.199158%)" offset="0.664062"/><stop stop-opacity="1" stop-color="rgb(6.416321%, 10.499573%, 43.4021%)" offset="0.671875"/><stop stop-opacity="1" stop-color="rgb(6.459045%, 10.557556%, 43.603516%)" offset="0.679688"/><stop stop-opacity="1" stop-color="rgb(6.50177%, 10.61554%, 43.806458%)" offset="0.6875"/><stop stop-opacity="1" stop-color="rgb(6.544495%, 10.673523%, 44.007874%)" offset="0.695312"/><stop stop-opacity="1" stop-color="rgb(6.587219%, 10.731506%, 44.210815%)" offset="0.703125"/><stop stop-opacity="1" stop-color="rgb(6.63147%, 10.78949%, 44.413757%)" offset="0.710938"/><stop stop-opacity="1" stop-color="rgb(6.674194%, 10.847473%, 44.615173%)" offset="0.71875"/><stop stop-opacity="1" stop-color="rgb(6.716919%, 10.903931%, 44.818115%)" offset="0.726562"/><stop stop-opacity="1" stop-color="rgb(6.759644%, 10.961914%, 45.019531%)" offset="0.734375"/><stop stop-opacity="1" stop-color="rgb(6.802368%, 11.019897%, 45.222473%)" offset="0.742188"/><stop stop-opacity="1" stop-color="rgb(6.845093%, 11.077881%, 45.425415%)" offset="0.75"/><stop stop-opacity="1" stop-color="rgb(6.898499%, 11.149597%, 45.677185%)" offset="0.757812"/><stop stop-opacity="1" stop-color="rgb(6.964111%, 11.236572%, 45.980835%)" offset="0.769531"/><stop stop-opacity="1" stop-color="rgb(7.028198%, 11.323547%, 46.284485%)" offset="0.78125"/><stop stop-opacity="1" stop-color="rgb(7.092285%, 11.410522%, 46.588135%)" offset="0.792969"/><stop stop-opacity="1" stop-color="rgb(7.156372%, 11.495972%, 46.891785%)" offset="0.804688"/><stop stop-opacity="1" stop-color="rgb(7.211304%, 11.569214%, 47.145081%)" offset="0.816406"/><stop stop-opacity="1" stop-color="rgb(7.254028%, 11.627197%, 47.346497%)" offset="0.824219"/><stop stop-opacity="1" stop-color="rgb(7.296753%, 11.685181%, 47.549438%)" offset="0.832031"/><stop stop-opacity="1" stop-color="rgb(7.339478%, 11.743164%, 47.75238%)" offset="0.839844"/><stop stop-opacity="1" stop-color="rgb(7.382202%, 11.801147%, 47.953796%)" offset="0.847656"/><stop stop-opacity="1" stop-color="rgb(7.424927%, 11.859131%, 48.156738%)" offset="0.855469"/><stop stop-opacity="1" stop-color="rgb(7.469177%, 11.915588%, 48.35968%)" offset="0.863281"/><stop stop-opacity="1" stop-color="rgb(7.511902%, 11.973572%, 48.561096%)" offset="0.871094"/><stop stop-opacity="1" stop-color="rgb(7.565308%, 12.045288%, 48.814392%)" offset="0.878906"/><stop stop-opacity="1" stop-color="rgb(7.629395%, 12.132263%, 49.118042%)" offset="0.890625"/><stop stop-opacity="1" stop-color="rgb(7.693481%, 12.219238%, 49.421692%)" offset="0.902344"/><stop stop-opacity="1" stop-color="rgb(7.748413%, 12.29248%, 49.673462%)" offset="0.914062"/><stop stop-opacity="1" stop-color="rgb(7.791138%, 12.350464%, 49.876404%)" offset="0.921875"/><stop stop-opacity="1" stop-color="rgb(7.833862%, 12.408447%, 50.079346%)" offset="0.929688"/><stop stop-opacity="1" stop-color="rgb(7.876587%, 12.464905%, 50.280762%)" offset="0.9375"/><stop stop-opacity="1" stop-color="rgb(7.929993%, 12.536621%, 50.534058%)" offset="0.945312"/><stop stop-opacity="1" stop-color="rgb(7.984924%, 12.609863%, 50.787354%)" offset="0.957031"/><stop stop-opacity="1" stop-color="rgb(8.027649%, 12.667847%, 50.98877%)" offset="0.964844"/><stop stop-opacity="1" stop-color="rgb(8.081055%, 12.739563%, 51.242065%)" offset="0.972656"/><stop stop-opacity="1" stop-color="rgb(8.13446%, 12.812805%, 51.495361%)" offset="0.984375"/><stop stop-opacity="1" stop-color="rgb(8.177185%, 12.870789%, 51.698303%)" offset="0.992188"/><stop stop-opacity="1" stop-color="rgb(8.198547%, 12.89978%, 51.799011%)" offset="1"/></radialGradient><clipPath id="567470c929"><path d="M 365.363281 285.589844 L 400.613281 285.589844 L 400.613281 389 L 365.363281 389 Z M 365.363281 285.589844 " clip-rule="nonzero"/></clipPath></defs><g clip-path="url(#9ab4eaa810)"><g clip-path="url(#4dd9ee36ee)"><path stroke-linecap="butt" transform="matrix(0, -0.75, 0.75, 0, 330.812154, 425.483543)" fill="none" stroke-linejoin="miter" d="M 70.837436 0.000461695 L 167.420774 0.000461695 C 187.493692 0.000461695 205.082234 13.432754 210.373901 32.797338 L 229.300986 102.094217 C 231.431194 109.901509 229.800986 118.255676 224.889527 124.682759 C 219.978068 131.115051 212.34786 134.891093 204.259318 134.891093 L 33.998893 134.891093 C 25.905142 134.891093 18.274934 131.115051 13.368683 124.682759 C 8.457225 118.255676 6.827016 109.901509 8.957225 102.094217 L 27.884309 32.797338 C 33.170768 13.432754 50.764518 0.000461695 70.837436 0.000461695 Z M 70.837436 0.000461695 " stroke="url(#2103642c33)" stroke-width="38" stroke-miterlimit="4"/></g></g><g clip-path="url(#567470c929)"><path fill="#121c74" d="M 395.9375 290.0625 L 397.121094 314.070312 C 397.371094 319.089844 395.265625 323.9375 391.433594 327.175781 C 387.28125 330.679688 385.167969 336.042969 385.84375 341.445312 C 387.855469 357.488281 389.261719 378.347656 389.261719 380.996094 C 389.261719 385.371094 385.730469 388.914062 381.371094 388.914062 C 377.015625 388.914062 373.480469 385.367188 373.480469 380.996094 C 373.480469 378.351562 374.886719 357.511719 376.894531 341.472656 C 377.566406 336.09375 375.46875 330.746094 371.347656 327.242188 L 371.265625 327.175781 C 367.460938 323.9375 365.375 319.105469 365.621094 314.105469 L 366.804688 290.0625 C 366.875 288.675781 368.015625 287.585938 369.398438 287.585938 C 370.832031 287.585938 371.992188 288.753906 371.992188 290.191406 L 371.992188 310.214844 C 371.992188 311.9375 373.382812 313.328125 375.097656 313.328125 C 376.8125 313.328125 378.203125 311.9375 378.203125 310.214844 L 378.203125 290.769531 C 378.203125 289.011719 379.621094 287.585938 381.371094 287.585938 C 383.121094 287.585938 384.542969 289.011719 384.542969 290.769531 L 384.542969 310.214844 C 384.542969 311.9375 385.929688 313.328125 387.644531 313.328125 C 389.363281 313.328125 390.75 311.9375 390.75 310.214844 L 390.75 290.191406 C 390.75 288.753906 391.914062 287.585938 393.34375 287.585938 C 394.726562 287.585938 395.867188 288.675781 395.9375 290.0625 Z M 425.039062 285.792969 L 425.039062 285.757812 C 424.992188 285.757812 424.941406 285.773438 424.894531 285.777344 C 424.832031 285.773438 424.773438 285.757812 424.710938 285.757812 C 424.488281 285.757812 424.292969 285.839844 424.082031 285.878906 C 424.074219 285.882812 424.066406 285.882812 424.058594 285.886719 C 423.695312 285.957031 423.359375 286.066406 423.046875 286.242188 C 418.59375 288.332031 411.035156 299.097656 408.109375 321.613281 C 407.15625 328.9375 407.453125 335.132812 407.980469 339.476562 C 408.484375 343.605469 410.824219 347.273438 414.289062 349.554688 C 415.972656 350.660156 416.925781 352.589844 416.792969 354.605469 L 415.117188 381.90625 C 414.84375 386.058594 418.464844 389.519531 422.757812 388.824219 C 425.960938 388.304688 428.210938 385.332031 428.210938 382.074219 L 428.210938 289.269531 C 428.210938 287.445312 426.816406 285.960938 425.039062 285.792969 Z M 425.039062 285.792969 " fill-opacity="1" fill-rule="nonzero"/></g><g fill="#050a30" fill-opacity="1"><g transform="translate(44.882813, 393.220842)"><g><path d="M 43.15625 -32.09375 L 55.015625 -110.671875 L 79.21875 -110.671875 L 79.21875 0 L 62.765625 0 L 62.765625 -79.375 L 50.75 0 L 34.3125 0 L 21.34375 -78.265625 L 21.34375 0 L 6.171875 0 L 6.171875 -110.671875 L 30.359375 -110.671875 Z M 43.15625 -32.09375 "/></g></g></g><g fill="#050a30" fill-opacity="1"><g transform="translate(130.420013, 393.220842)"><g><path d="M 23.71875 -64.03125 L 47.59375 -64.03125 L 47.59375 -48.21875 L 23.71875 -48.21875 L 23.71875 -15.8125 L 53.75 -15.8125 L 53.75 0 L 6.328125 0 L 6.328125 -110.671875 L 53.75 -110.671875 L 53.75 -94.859375 L 23.71875 -94.859375 Z M 23.71875 -64.03125 "/></g></g></g><g fill="#050a30" fill-opacity="1"><g transform="translate(188.604279, 393.220842)"><g><path d="M 21.8125 -80.15625 L 21.8125 0 L 6.171875 0 L 6.171875 -110.671875 L 27.984375 -110.671875 L 45.859375 -44.421875 L 45.859375 -110.671875 L 61.34375 -110.671875 L 61.34375 0 L 43.484375 0 Z M 21.8125 -80.15625 "/></g></g></g><g fill="#050a30" fill-opacity="1"><g transform="translate(256.117002, 393.220842)"><g><path d="M 22.921875 -110.671875 L 22.921875 -25.296875 C 22.921875 -21.296875 23.738281 -18.503906 25.375 -16.921875 C 27.007812 -15.335938 29.195312 -14.546875 31.9375 -14.546875 C 34.675781 -14.546875 36.863281 -15.335938 38.5 -16.921875 C 40.132812 -18.503906 40.953125 -21.296875 40.953125 -25.296875 L 40.953125 -110.671875 L 57.390625 -110.671875 L 57.390625 -26.40625 C 57.390625 -17.445312 55.203125 -10.566406 50.828125 -5.765625 C 46.453125 -0.972656 40 1.421875 31.46875 1.421875 C 22.925781 1.421875 16.46875 -0.972656 12.09375 -5.765625 C 7.71875 -10.566406 5.53125 -17.445312 5.53125 -26.40625 L 5.53125 -110.671875 Z M 22.921875 -110.671875 "/></g></g></g><g fill="#070e42" fill-opacity="1"><g transform="translate(319.054675, 393.220842)"><g/></g></g><g fill="#121c74" fill-opacity="1"><g transform="translate(442.293203, 393.220842)"><g><path d="M 23.71875 -61.5 L 46.171875 -61.5 L 46.171875 -45.6875 L 23.71875 -45.6875 L 23.71875 0 L 6.328125 0 L 6.328125 -110.671875 L 52.328125 -110.671875 L 52.328125 -94.859375 L 23.71875 -94.859375 Z M 23.71875 -61.5 "/></g></g></g><g fill="#121c74" fill-opacity="1"><g transform="translate(496.682849, 393.220842)"><g><path d="M 62.609375 0 L 45.0625 0 L 42.0625 -20.078125 L 20.71875 -20.078125 L 17.703125 0 L 1.734375 0 L 19.453125 -110.671875 L 44.90625 -110.671875 Z M 22.921875 -35.09375 L 39.6875 -35.09375 L 31.3125 -91.078125 Z M 22.921875 -35.09375 "/></g></g></g><g fill="#121c74" fill-opacity="1"><g transform="translate(561.033386, 393.220842)"><g><path d="M 56.765625 -41.265625 L 56.765625 -26.5625 C 56.765625 -17.601562 54.578125 -10.722656 50.203125 -5.921875 C 45.828125 -1.128906 39.367188 1.265625 30.828125 1.265625 C 22.296875 1.265625 15.84375 -1.128906 11.46875 -5.921875 C 7.09375 -10.722656 4.90625 -17.601562 4.90625 -26.5625 L 4.90625 -84.109375 C 4.90625 -93.066406 7.09375 -99.941406 11.46875 -104.734375 C 15.84375 -109.535156 22.296875 -111.9375 30.828125 -111.9375 C 39.367188 -111.9375 45.828125 -109.535156 50.203125 -104.734375 C 54.578125 -99.941406 56.765625 -93.066406 56.765625 -84.109375 L 56.765625 -73.359375 L 40.3125 -73.359375 L 40.3125 -85.21875 C 40.3125 -89.226562 39.492188 -92.046875 37.859375 -93.671875 C 36.234375 -95.304688 34.050781 -96.125 31.3125 -96.125 C 28.5625 -96.125 26.367188 -95.304688 24.734375 -93.671875 C 23.109375 -92.046875 22.296875 -89.226562 22.296875 -85.21875 L 22.296875 -25.453125 C 22.296875 -21.453125 23.109375 -18.660156 24.734375 -17.078125 C 26.367188 -15.492188 28.5625 -14.703125 31.3125 -14.703125 C 34.050781 -14.703125 36.234375 -15.492188 37.859375 -17.078125 C 39.492188 -18.660156 40.3125 -21.453125 40.3125 -25.453125 L 40.3125 -41.265625 Z M 56.765625 -41.265625 "/></g></g></g><g fill="#121c74" fill-opacity="1"><g transform="translate(622.063626, 393.220842)"><g><path d="M 6.328125 -110.671875 L 23.71875 -110.671875 L 23.71875 0 L 6.328125 0 Z M 6.328125 -110.671875 "/></g></g></g><g fill="#121c74" fill-opacity="1"><g transform="translate(652.104411, 393.220842)"><g><path d="M 6.328125 -110.671875 L 23.71875 -110.671875 L 23.71875 -15.8125 L 52.328125 -15.8125 L 52.328125 0 L 6.328125 0 Z M 6.328125 -110.671875 "/></g></g></g><g fill="#050a30" fill-opacity="1"><g transform="translate(128.251725, 478.342914)"><g><path d="M 7.21875 0.359375 L 8.828125 -31.671875 L 2.265625 -32 L 2.4375 -35.625 L 19.5625 -34.765625 L 19.390625 -31.140625 L 12.8125 -31.46875 L 11.203125 0.5625 Z M 7.21875 0.359375 "/></g></g></g><g fill="#050a30" fill-opacity="1"><g transform="translate(146.786206, 479.272918)"><g><path d="M 6.203125 -8.140625 C 6.128906 -6.515625 6.398438 -5.234375 7.015625 -4.296875 C 7.628906 -3.367188 8.671875 -2.875 10.140625 -2.8125 C 11.566406 -2.738281 12.628906 -3.132812 13.328125 -4 C 14.035156 -4.875 14.425781 -6.125 14.5 -7.75 L 15.75 -35.015625 L 19.46875 -34.84375 L 18.21875 -7.78125 C 18.09375 -5.0625 17.347656 -2.910156 15.984375 -1.328125 C 14.617188 0.253906 12.5625 0.984375 9.8125 0.859375 C 7.101562 0.734375 5.140625 -0.175781 3.921875 -1.875 C 2.703125 -3.582031 2.15625 -5.796875 2.28125 -8.515625 L 3.53125 -35.578125 L 7.453125 -35.40625 Z M 6.203125 -8.140625 "/></g></g></g><g fill="#050a30" fill-opacity="1"><g transform="translate(166.533542, 480.173816)"><g/></g></g><g fill="#050a30" fill-opacity="1"><g transform="translate(174.463973, 480.52416)"><g><path d="M 11.171875 -35.640625 C 13.929688 -35.523438 15.929688 -34.625 17.171875 -32.9375 C 18.410156 -31.25 18.976562 -29.050781 18.875 -26.34375 L 18.734375 -23.140625 L 14.96875 -23.296875 L 15.109375 -26.703125 C 15.179688 -28.328125 14.898438 -29.601562 14.265625 -30.53125 C 13.640625 -31.457031 12.597656 -31.953125 11.140625 -32.015625 C 9.722656 -32.066406 8.65625 -31.65625 7.9375 -30.78125 C 7.21875 -29.90625 6.820312 -28.65625 6.75 -27.03125 L 6 -8.1875 C 5.925781 -6.550781 6.210938 -5.269531 6.859375 -4.34375 C 7.503906 -3.414062 8.535156 -2.925781 9.953125 -2.875 C 11.410156 -2.8125 12.488281 -3.21875 13.1875 -4.09375 C 13.894531 -4.96875 14.285156 -6.222656 14.359375 -7.859375 L 14.546875 -12.484375 L 18.3125 -12.328125 L 18.125 -7.90625 C 18.019531 -5.175781 17.28125 -3.019531 15.90625 -1.4375 C 14.53125 0.132812 12.460938 0.863281 9.703125 0.75 C 6.992188 0.644531 5.019531 -0.25 3.78125 -1.9375 C 2.539062 -3.625 1.972656 -5.832031 2.078125 -8.5625 L 2.828125 -27 C 2.878906 -28.351562 3.085938 -29.570312 3.453125 -30.65625 C 3.828125 -31.75 4.359375 -32.671875 5.046875 -33.421875 C 5.742188 -34.179688 6.601562 -34.753906 7.625 -35.140625 C 8.644531 -35.523438 9.828125 -35.691406 11.171875 -35.640625 Z M 11.171875 -35.640625 "/></g></g></g><g fill="#050a30" fill-opacity="1"><g transform="translate(193.876184, 481.307894)"><g><path d="M 6.328125 -6.96875 L 4.6875 0.171875 L 1.015625 0.03125 L 9.140625 -35.40625 L 14.875 -35.203125 L 20.4375 0.734375 L 16.453125 0.59375 L 15.34375 -6.640625 Z M 6.953125 -10.375 L 14.890625 -10.09375 L 11.625 -30.828125 Z M 6.953125 -10.375 "/></g></g></g><g fill="#050a30" fill-opacity="1"><g transform="translate(215.432733, 482.081025)"><g><path d="M 11.125 -35.375 C 13.945312 -35.28125 15.953125 -34.515625 17.140625 -33.078125 C 18.335938 -31.648438 18.894531 -29.613281 18.8125 -26.96875 L 18.71875 -24.0625 C 18.65625 -22.082031 18.242188 -20.488281 17.484375 -19.28125 C 16.734375 -18.082031 15.59375 -17.269531 14.0625 -16.84375 C 15.664062 -16.320312 16.785156 -15.414062 17.421875 -14.125 C 18.066406 -12.832031 18.359375 -11.21875 18.296875 -9.28125 L 18.125 -3.71875 C 18.09375 -2.9375 18.097656 -2.175781 18.140625 -1.4375 C 18.191406 -0.707031 18.378906 -0.03125 18.703125 0.59375 L 14.6875 0.46875 C 14.46875 -0.0507812 14.316406 -0.609375 14.234375 -1.203125 C 14.148438 -1.804688 14.128906 -2.703125 14.171875 -3.890625 L 14.34375 -9.5 C 14.40625 -11.507812 14 -12.910156 13.125 -13.703125 C 12.25 -14.492188 10.976562 -14.914062 9.3125 -14.96875 L 6.5 -15.0625 L 6.015625 0.1875 L 2.046875 0.0625 L 3.171875 -35.625 Z M 9.5625 -18.578125 C 11.164062 -18.523438 12.421875 -18.816406 13.328125 -19.453125 C 14.234375 -20.085938 14.71875 -21.375 14.78125 -23.3125 L 14.890625 -26.734375 C 14.941406 -28.359375 14.664062 -29.585938 14.0625 -30.421875 C 13.457031 -31.265625 12.40625 -31.707031 10.90625 -31.75 L 7.03125 -31.875 L 6.609375 -18.671875 Z M 9.5625 -18.578125 "/></g></g></g><g fill="#050a30" fill-opacity="1"><g transform="translate(235.561655, 482.714357)"><g><path d="M 7.234375 0.203125 L 8.109375 -31.859375 L 1.53125 -32.046875 L 1.640625 -35.671875 L 18.78125 -35.203125 L 18.671875 -31.578125 L 12.09375 -31.75 L 11.21875 0.3125 Z M 7.234375 0.203125 "/></g></g></g><g fill="#050a30" fill-opacity="1"><g transform="translate(254.114654, 483.227037)"><g><path d="M 6.234375 -7.046875 L 4.6875 0.109375 L 1.015625 0.03125 L 8.6875 -35.5 L 14.4375 -35.375 L 20.453125 0.46875 L 16.46875 0.375 L 15.265625 -6.84375 Z M 6.828125 -10.453125 L 14.78125 -10.265625 L 11.21875 -30.953125 Z M 6.828125 -10.453125 "/></g></g></g><g fill="#050a30" fill-opacity="1"><g transform="translate(275.663831, 483.71733)"><g/></g></g><g fill="#050a30" fill-opacity="1"><g transform="translate(283.60125, 483.886279)"><g><path d="M 11.015625 -35.53125 C 13.804688 -35.476562 15.84375 -34.648438 17.125 -33.046875 C 18.40625 -31.441406 19.019531 -29.265625 18.96875 -26.515625 L 18.671875 -8.515625 C 18.617188 -5.753906 17.925781 -3.601562 16.59375 -2.0625 C 15.257812 -0.519531 13.195312 0.222656 10.40625 0.171875 L 2.046875 0.03125 L 2.65625 -35.671875 Z M 10.421875 -3.453125 C 11.847656 -3.421875 12.914062 -3.832031 13.625 -4.6875 C 14.34375 -5.539062 14.71875 -6.785156 14.75 -8.421875 L 15.0625 -26.78125 C 15.082031 -28.414062 14.75 -29.671875 14.0625 -30.546875 C 13.382812 -31.421875 12.3125 -31.875 10.84375 -31.90625 L 6.5625 -31.96875 L 6.078125 -3.515625 Z M 10.421875 -3.453125 "/></g></g></g><g fill="#050a30" fill-opacity="1"><g transform="translate(303.826003, 484.224467)"><g><path d="M 6.515625 -35.625 L 6.015625 0.078125 L 2.046875 0.03125 L 2.546875 -35.671875 Z M 6.515625 -35.625 "/></g></g></g><g fill="#050a30" fill-opacity="1"><g transform="translate(311.916612, 484.347637)"><g><path d="M 10.140625 -35.953125 C 12.898438 -35.921875 14.921875 -35.078125 16.203125 -33.421875 C 17.492188 -31.773438 18.128906 -29.59375 18.109375 -26.875 L 18.0625 -23.8125 L 14.296875 -23.859375 L 14.34375 -27.125 C 14.351562 -28.757812 14.03125 -30.03125 13.375 -30.9375 C 12.71875 -31.84375 11.660156 -32.304688 10.203125 -32.328125 C 8.773438 -32.335938 7.710938 -31.894531 7.015625 -31 C 6.328125 -30.113281 5.976562 -28.851562 5.96875 -27.21875 L 5.75 -8.359375 C 5.726562 -6.722656 6.050781 -5.445312 6.71875 -4.53125 C 7.394531 -3.625 8.445312 -3.164062 9.875 -3.15625 C 11.332031 -3.132812 12.398438 -3.570312 13.078125 -4.46875 C 13.753906 -5.363281 14.101562 -6.628906 14.125 -8.265625 L 14.203125 -15.40625 L 10.53125 -15.453125 L 10.578125 -19.015625 L 18.015625 -18.921875 L 17.890625 -8.421875 C 17.859375 -5.691406 17.179688 -3.519531 15.859375 -1.90625 C 14.535156 -0.289062 12.492188 0.5 9.734375 0.46875 C 7.015625 0.4375 5.007812 -0.398438 3.71875 -2.046875 C 2.425781 -3.691406 1.796875 -5.878906 1.828125 -8.609375 L 2.046875 -27.0625 C 2.054688 -28.425781 2.226562 -29.65625 2.5625 -30.75 C 2.894531 -31.851562 3.394531 -32.789062 4.0625 -33.5625 C 4.738281 -34.34375 5.582031 -34.9375 6.59375 -35.34375 C 7.601562 -35.757812 8.785156 -35.960938 10.140625 -35.953125 Z M 10.140625 -35.953125 "/></g></g></g><g fill="#050a30" fill-opacity="1"><g transform="translate(331.479324, 484.55994)"><g><path d="M 6.3125 -35.65625 L 6.015625 0.046875 L 2.046875 0.015625 L 2.34375 -35.6875 Z M 6.3125 -35.65625 "/></g></g></g><g fill="#050a30" fill-opacity="1"><g transform="translate(339.569237, 484.63491)"><g><path d="M 7.234375 0.046875 L 7.40625 -32.03125 L 0.828125 -32.078125 L 0.859375 -35.703125 L 18 -35.609375 L 17.96875 -31.984375 L 11.390625 -32.015625 L 11.21875 0.0625 Z M 7.234375 0.046875 "/></g></g></g><g fill="#050a30" fill-opacity="1"><g transform="translate(358.128986, 484.741325)"><g><path d="M 6.078125 -7.171875 L 4.6875 0 L 1.015625 0 L 7.90625 -35.6875 L 13.65625 -35.6875 L 20.453125 0.03125 L 16.46875 0.015625 L 15.109375 -7.171875 Z M 6.59375 -10.59375 L 14.546875 -10.59375 L 10.546875 -31.203125 Z M 6.59375 -10.59375 "/></g></g></g><g fill="#050a30" fill-opacity="1"><g transform="translate(379.695676, 484.765852)"><g><path d="M 2.046875 0 L 1.953125 -35.703125 L 5.921875 -35.71875 L 6 -3.640625 L 16.203125 -3.671875 L 16.21875 -0.046875 Z M 2.046875 0 "/></g></g></g><g fill="#050a30" fill-opacity="1"><g transform="translate(396.910786, 484.712521)"><g/></g></g><g fill="#050a30" fill-opacity="1"><g transform="translate(404.850719, 484.679539)"><g><path d="M 5.875 -16.109375 L 6.015625 -0.046875 L 2.046875 -0.015625 L 1.75 -35.71875 L 5.71875 -35.75 L 5.84375 -19.6875 L 14.625 -19.765625 L 14.5 -35.828125 L 18.46875 -35.859375 L 18.765625 -0.15625 L 14.796875 -0.125 L 14.65625 -16.1875 Z M 5.875 -16.109375 "/></g></g></g><g fill="#050a30" fill-opacity="1"><g transform="translate(425.703427, 484.501434)"><g><path d="M 14.484375 -20.078125 L 14.53125 -16.5 L 5.8125 -16.390625 L 5.96875 -3.703125 L 16.6875 -3.828125 L 16.734375 -0.203125 L 2.046875 -0.03125 L 1.59375 -35.734375 L 16.28125 -35.90625 L 16.328125 -32.28125 L 5.609375 -32.15625 L 5.765625 -19.96875 Z M 14.484375 -20.078125 "/></g></g></g><g fill="#050a30" fill-opacity="1"><g transform="translate(444.106128, 484.27151)"><g><path d="M 9.140625 -36.21875 C 11.898438 -36.269531 13.945312 -35.488281 15.28125 -33.875 C 16.613281 -32.257812 17.300781 -30.09375 17.34375 -27.375 L 17.40625 -24.171875 L 13.640625 -24.109375 L 13.578125 -27.515625 C 13.554688 -29.148438 13.203125 -30.410156 12.515625 -31.296875 C 11.835938 -32.191406 10.769531 -32.625 9.3125 -32.59375 C 7.882812 -32.570312 6.835938 -32.101562 6.171875 -31.1875 C 5.503906 -30.28125 5.179688 -29.007812 5.203125 -27.375 L 5.515625 -8.515625 C 5.546875 -6.878906 5.910156 -5.613281 6.609375 -4.71875 C 7.304688 -3.832031 8.367188 -3.398438 9.796875 -3.421875 C 11.253906 -3.453125 12.304688 -3.921875 12.953125 -4.828125 C 13.609375 -5.742188 13.921875 -7.019531 13.890625 -8.65625 L 13.8125 -13.296875 L 17.578125 -13.359375 L 17.65625 -8.921875 C 17.695312 -6.191406 17.078125 -4 15.796875 -2.34375 C 14.515625 -0.695312 12.492188 0.148438 9.734375 0.203125 C 7.015625 0.242188 4.988281 -0.535156 3.65625 -2.140625 C 2.320312 -3.753906 1.632812 -5.925781 1.59375 -8.65625 L 1.28125 -27.109375 C 1.257812 -28.472656 1.398438 -29.707031 1.703125 -30.8125 C 2.015625 -31.925781 2.492188 -32.878906 3.140625 -33.671875 C 3.785156 -34.460938 4.609375 -35.078125 5.609375 -35.515625 C 6.609375 -35.960938 7.785156 -36.195312 9.140625 -36.21875 Z M 9.140625 -36.21875 "/></g></g></g><g fill="#050a30" fill-opacity="1"><g transform="translate(463.530613, 483.951883)"><g><path d="M 5.6875 -16.1875 L 6.015625 -0.125 L 2.046875 -0.046875 L 1.3125 -35.734375 L 5.28125 -35.8125 L 5.609375 -19.765625 L 14.390625 -19.953125 L 14.0625 -36 L 18.03125 -36.078125 L 18.765625 -0.390625 L 14.796875 -0.3125 L 14.46875 -16.375 Z M 5.6875 -16.1875 "/></g></g></g><g fill="#050a30" fill-opacity="1"><g transform="translate(484.383643, 483.519501)"><g><path d="M 5.875 -7.34375 L 4.6875 -0.125 L 1.015625 -0.03125 L 6.953125 -35.890625 L 12.703125 -36.03125 L 20.453125 -0.515625 L 16.46875 -0.421875 L 14.90625 -7.5625 Z M 6.3125 -10.78125 L 14.265625 -10.96875 L 9.71875 -31.46875 Z M 6.3125 -10.78125 "/></g></g></g><g fill="#050a30" fill-opacity="1"><g transform="translate(505.931275, 482.965078)"><g/></g></g><g fill="#050a30" fill-opacity="1"><g transform="translate(513.865907, 482.747969)"><g><path d="M 8.40625 -36.34375 C 11.125 -36.425781 13.15625 -35.679688 14.5 -34.109375 C 15.84375 -32.535156 16.554688 -30.382812 16.640625 -27.65625 L 16.671875 -26.6875 L 12.90625 -26.5625 L 12.859375 -27.75 C 12.816406 -29.375 12.457031 -30.617188 11.78125 -31.484375 C 11.101562 -32.347656 10.050781 -32.757812 8.625 -32.71875 C 7.195312 -32.675781 6.175781 -32.203125 5.5625 -31.296875 C 4.945312 -30.390625 4.660156 -29.140625 4.703125 -27.546875 C 4.742188 -26.210938 5.078125 -25.0625 5.703125 -24.09375 C 6.328125 -23.132812 7.09375 -22.25 8 -21.4375 C 8.914062 -20.632812 9.90625 -19.847656 10.96875 -19.078125 C 12.03125 -18.316406 13.019531 -17.472656 13.9375 -16.546875 C 14.851562 -15.628906 15.625 -14.578125 16.25 -13.390625 C 16.875 -12.203125 17.210938 -10.773438 17.265625 -9.109375 C 17.347656 -6.390625 16.757812 -4.203125 15.5 -2.546875 C 14.25 -0.890625 12.25 -0.0195312 9.5 0.0625 C 6.75 0.144531 4.703125 -0.597656 3.359375 -2.171875 C 2.015625 -3.742188 1.300781 -5.890625 1.21875 -8.609375 L 1.15625 -10.65625 L 4.875 -10.765625 L 4.9375 -8.515625 C 4.988281 -6.890625 5.363281 -5.644531 6.0625 -4.78125 C 6.769531 -3.914062 7.84375 -3.507812 9.28125 -3.5625 C 10.707031 -3.601562 11.742188 -4.078125 12.390625 -4.984375 C 13.046875 -5.890625 13.347656 -7.15625 13.296875 -8.78125 C 13.253906 -10.113281 12.921875 -11.253906 12.296875 -12.203125 C 11.679688 -13.148438 10.914062 -14.023438 10 -14.828125 C 9.09375 -15.640625 8.113281 -16.425781 7.0625 -17.1875 C 6.019531 -17.945312 5.039062 -18.789062 4.125 -19.71875 C 3.21875 -20.644531 2.445312 -21.703125 1.8125 -22.890625 C 1.175781 -24.078125 0.832031 -25.5 0.78125 -27.15625 C 0.695312 -29.914062 1.273438 -32.113281 2.515625 -33.75 C 3.765625 -35.394531 5.726562 -36.257812 8.40625 -36.34375 Z M 8.40625 -36.34375 "/></g></g></g><g fill="#050a30" fill-opacity="1"><g transform="translate(532.858713, 482.14798)"><g><path d="M 4.796875 -35.890625 L 6.015625 -0.203125 L 2.046875 -0.0625 L 0.828125 -35.75 Z M 4.796875 -35.890625 "/></g></g></g><g fill="#050a30" fill-opacity="1"><g transform="translate(540.955339, 481.889407)"><g><path d="M 15.1875 -0.625 L 11.359375 -0.46875 L 4.375 -28.640625 L 5.453125 -0.203125 L 1.984375 -0.078125 L 0.640625 -35.75 L 6.203125 -35.953125 L 13.125 -7.6875 L 17.71875 -36.390625 L 23.28125 -36.59375 L 24.625 -0.921875 L 20.84375 -0.78125 L 19.765625 -29.484375 Z M 15.1875 -0.625 "/></g></g></g><g fill="#050a30" fill-opacity="1"><g transform="translate(567.661541, 480.873305)"><g><path d="M 8.3125 -36.09375 C 11.132812 -36.207031 13.207031 -35.519531 14.53125 -34.03125 C 15.851562 -32.539062 16.570312 -30.4375 16.6875 -27.71875 L 16.859375 -23.4375 C 16.984375 -20.582031 16.40625 -18.40625 15.125 -16.90625 C 13.851562 -15.40625 11.785156 -14.59375 8.921875 -14.46875 L 5.421875 -14.3125 L 6.015625 -0.25 L 2.046875 -0.09375 L 0.53125 -35.765625 Z M 8.765625 -18.03125 C 10.265625 -18.09375 11.351562 -18.503906 12.03125 -19.265625 C 12.71875 -20.035156 13.023438 -21.285156 12.953125 -23.015625 L 12.75 -27.75 C 12.675781 -29.375 12.304688 -30.582031 11.640625 -31.375 C 10.984375 -32.164062 9.925781 -32.53125 8.46875 -32.46875 L 4.65625 -32.296875 L 5.265625 -17.875 Z M 8.765625 -18.03125 "/></g></g></g><g fill="#050a30" fill-opacity="1"><g transform="translate(586.760269, 480.059021)"><g><path d="M 2.046875 -0.09375 L 0.390625 -35.765625 L 4.359375 -35.953125 L 5.84375 -3.90625 L 16.03125 -4.375 L 16.203125 -0.75 Z M 2.046875 -0.09375 "/></g></g></g><g fill="#050a30" fill-opacity="1"><g transform="translate(603.970528, 479.262078)"><g><path d="M 13.71875 -20.59375 L 13.90625 -17.03125 L 5.203125 -16.59375 L 5.828125 -3.921875 L 16.53125 -4.46875 L 16.71875 -0.84375 L 2.046875 -0.109375 L 0.265625 -35.765625 L 14.9375 -36.5 L 15.109375 -32.875 L 4.40625 -32.328125 L 5.015625 -20.15625 Z M 13.71875 -20.59375 "/></g></g></g></svg>