<svg xmlns="http://www.w3.org/2000/svg" xmlns:xlink="http://www.w3.org/1999/xlink" zoomAndPan="magnify" preserveAspectRatio="xMidYMid meet" version="1.0" viewBox="51.05 272.68 653.38 204.63"><defs><g/><clipPath id="20125f9ee6"><path d="M 330.8125 291.65625 L 432 291.65625 L 432 459 L 330.8125 459 Z M 330.8125 291.65625 " clip-rule="nonzero"/></clipPath><clipPath id="ea0a3323ac"><path d="M 330.8125 411.214844 L 330.8125 338.78125 C 330.8125 323.722656 340.886719 310.53125 355.410156 306.5625 L 407.382812 292.371094 C 413.238281 290.769531 419.503906 291.992188 424.324219 295.675781 C 429.148438 299.359375 431.980469 305.082031 431.980469 311.148438 L 431.980469 438.84375 C 431.980469 444.914062 429.148438 450.636719 424.324219 454.320312 C 419.503906 458 413.238281 459.222656 407.382812 457.625 L 355.410156 443.429688 C 340.886719 439.464844 330.8125 426.269531 330.8125 411.214844 Z M 330.8125 411.214844 " clip-rule="nonzero"/></clipPath><radialGradient gradientTransform="matrix(1.333333, 0, 0, 1.333333, 0.00000353648, 0.00000877845)" gradientUnits="userSpaceOnUse" r="194.939413" cx="6.030176" id="6693d7730f" cy="0" fx="6.030176" fy="0"><stop stop-opacity="1" stop-color="rgb(2.720642%, 5.528259%, 25.999451%)" offset="0"/><stop stop-opacity="1" stop-color="rgb(2.774048%, 5.599976%, 26.252747%)" offset="0.0078125"/><stop stop-opacity="1" stop-color="rgb(2.838135%, 5.686951%, 26.556396%)" offset="0.0195312"/><stop stop-opacity="1" stop-color="rgb(2.903748%, 5.773926%, 26.860046%)" offset="0.03125"/><stop stop-opacity="1" stop-color="rgb(2.967834%, 5.859375%, 27.163696%)" offset="0.0429688"/><stop stop-opacity="1" stop-color="rgb(3.031921%, 5.94635%, 27.467346%)" offset="0.0546875"/><stop stop-opacity="1" stop-color="rgb(3.096008%, 6.033325%, 27.76947%)" offset="0.0664062"/><stop stop-opacity="1" stop-color="rgb(3.161621%, 6.1203%, 28.07312%)" offset="0.078125"/><stop stop-opacity="1" stop-color="rgb(3.225708%, 6.207275%, 28.37677%)" offset="0.0898438"/><stop stop-opacity="1" stop-color="rgb(3.289795%, 6.29425%, 28.68042%)" offset="0.101562"/><stop stop-opacity="1" stop-color="rgb(3.353882%, 6.3797%, 28.98407%)" offset="0.113281"/><stop stop-opacity="1" stop-color="rgb(3.419495%, 6.466675%, 29.28772%)" offset="0.125"/><stop stop-opacity="1" stop-color="rgb(3.483582%, 6.55365%, 29.59137%)" offset="0.136719"/><stop stop-opacity="1" stop-color="rgb(3.547668%, 6.640625%, 29.89502%)" offset="0.148438"/><stop stop-opacity="1" stop-color="rgb(3.611755%, 6.7276%, 30.198669%)" offset="0.160156"/><stop stop-opacity="1" stop-color="rgb(3.675842%, 6.814575%, 30.502319%)" offset="0.171875"/><stop stop-opacity="1" stop-color="rgb(3.741455%, 6.900024%, 30.805969%)" offset="0.183594"/><stop stop-opacity="1" stop-color="rgb(3.805542%, 6.987%, 31.109619%)" offset="0.195312"/><stop stop-opacity="1" stop-color="rgb(3.869629%, 7.073975%, 31.411743%)" offset="0.207031"/><stop stop-opacity="1" stop-color="rgb(3.933716%, 7.16095%, 31.715393%)" offset="0.21875"/><stop stop-opacity="1" stop-color="rgb(3.999329%, 7.247925%, 32.019043%)" offset="0.230469"/><stop stop-opacity="1" stop-color="rgb(4.063416%, 7.3349%, 32.322693%)" offset="0.242188"/><stop stop-opacity="1" stop-color="rgb(4.116821%, 7.406616%, 32.575989%)" offset="0.253906"/><stop stop-opacity="1" stop-color="rgb(4.159546%, 7.4646%, 32.778931%)" offset="0.261719"/><stop stop-opacity="1" stop-color="rgb(4.202271%, 7.522583%, 32.980347%)" offset="0.269531"/><stop stop-opacity="1" stop-color="rgb(4.246521%, 7.580566%, 33.183289%)" offset="0.277344"/><stop stop-opacity="1" stop-color="rgb(4.289246%, 7.63855%, 33.38623%)" offset="0.285156"/><stop stop-opacity="1" stop-color="rgb(4.33197%, 7.696533%, 33.587646%)" offset="0.292969"/><stop stop-opacity="1" stop-color="rgb(4.374695%, 7.754517%, 33.790588%)" offset="0.300781"/><stop stop-opacity="1" stop-color="rgb(4.417419%, 7.810974%, 33.992004%)" offset="0.308594"/><stop stop-opacity="1" stop-color="rgb(4.460144%, 7.868958%, 34.194946%)" offset="0.316406"/><stop stop-opacity="1" stop-color="rgb(4.504395%, 7.926941%, 34.397888%)" offset="0.324219"/><stop stop-opacity="1" stop-color="rgb(4.547119%, 7.984924%, 34.599304%)" offset="0.332031"/><stop stop-opacity="1" stop-color="rgb(4.589844%, 8.042908%, 34.802246%)" offset="0.339844"/><stop stop-opacity="1" stop-color="rgb(4.632568%, 8.100891%, 35.003662%)" offset="0.347656"/><stop stop-opacity="1" stop-color="rgb(4.675293%, 8.158875%, 35.206604%)" offset="0.355469"/><stop stop-opacity="1" stop-color="rgb(4.718018%, 8.216858%, 35.409546%)" offset="0.363281"/><stop stop-opacity="1" stop-color="rgb(4.762268%, 8.274841%, 35.610962%)" offset="0.371094"/><stop stop-opacity="1" stop-color="rgb(4.804993%, 8.331299%, 35.813904%)" offset="0.378906"/><stop stop-opacity="1" stop-color="rgb(4.847717%, 8.389282%, 36.01532%)" offset="0.386719"/><stop stop-opacity="1" stop-color="rgb(4.890442%, 8.447266%, 36.218262%)" offset="0.394531"/><stop stop-opacity="1" stop-color="rgb(4.933167%, 8.505249%, 36.421204%)" offset="0.402344"/><stop stop-opacity="1" stop-color="rgb(4.975891%, 8.563232%, 36.62262%)" offset="0.410156"/><stop stop-opacity="1" stop-color="rgb(5.020142%, 8.621216%, 36.825562%)" offset="0.417969"/><stop stop-opacity="1" stop-color="rgb(5.062866%, 8.679199%, 37.026978%)" offset="0.425781"/><stop stop-opacity="1" stop-color="rgb(5.105591%, 8.737183%, 37.229919%)" offset="0.433594"/><stop stop-opacity="1" stop-color="rgb(5.148315%, 8.795166%, 37.432861%)" offset="0.441406"/><stop stop-opacity="1" stop-color="rgb(5.19104%, 8.851624%, 37.634277%)" offset="0.449219"/><stop stop-opacity="1" stop-color="rgb(5.233765%, 8.909607%, 37.837219%)" offset="0.457031"/><stop stop-opacity="1" stop-color="rgb(5.276489%, 8.96759%, 38.040161%)" offset="0.464844"/><stop stop-opacity="1" stop-color="rgb(5.32074%, 9.025574%, 38.241577%)" offset="0.472656"/><stop stop-opacity="1" stop-color="rgb(5.363464%, 9.083557%, 38.444519%)" offset="0.480469"/><stop stop-opacity="1" stop-color="rgb(5.406189%, 9.141541%, 38.645935%)" offset="0.488281"/><stop stop-opacity="1" stop-color="rgb(5.448914%, 9.199524%, 38.848877%)" offset="0.496094"/><stop stop-opacity="1" stop-color="rgb(5.502319%, 9.27124%, 39.102173%)" offset="0.503906"/><stop stop-opacity="1" stop-color="rgb(5.567932%, 9.358215%, 39.404297%)" offset="0.515625"/><stop stop-opacity="1" stop-color="rgb(5.632019%, 9.443665%, 39.707947%)" offset="0.527344"/><stop stop-opacity="1" stop-color="rgb(5.696106%, 9.53064%, 40.011597%)" offset="0.539062"/><stop stop-opacity="1" stop-color="rgb(5.760193%, 9.617615%, 40.315247%)" offset="0.550781"/><stop stop-opacity="1" stop-color="rgb(5.82428%, 9.70459%, 40.618896%)" offset="0.5625"/><stop stop-opacity="1" stop-color="rgb(5.889893%, 9.791565%, 40.922546%)" offset="0.574219"/><stop stop-opacity="1" stop-color="rgb(5.953979%, 9.87854%, 41.226196%)" offset="0.585938"/><stop stop-opacity="1" stop-color="rgb(6.018066%, 9.963989%, 41.529846%)" offset="0.597656"/><stop stop-opacity="1" stop-color="rgb(6.082153%, 10.050964%, 41.833496%)" offset="0.609375"/><stop stop-opacity="1" stop-color="rgb(6.147766%, 10.137939%, 42.137146%)" offset="0.621094"/><stop stop-opacity="1" stop-color="rgb(6.201172%, 10.211182%, 42.390442%)" offset="0.632812"/><stop stop-opacity="1" stop-color="rgb(6.243896%, 10.269165%, 42.591858%)" offset="0.640625"/><stop stop-opacity="1" stop-color="rgb(6.286621%, 10.327148%, 42.7948%)" offset="0.648438"/><stop stop-opacity="1" stop-color="rgb(6.329346%, 10.383606%, 42.996216%)" offset="0.65625"/><stop stop-opacity="1" stop-color="rgb(6.373596%, 10.441589%, 43.199158%)" offset="0.664062"/><stop stop-opacity="1" stop-color="rgb(6.416321%, 10.499573%, 43.4021%)" offset="0.671875"/><stop stop-opacity="1" stop-color="rgb(6.459045%, 10.557556%, 43.603516%)" offset="0.679688"/><stop stop-opacity="1" stop-color="rgb(6.50177%, 10.61554%, 43.806458%)" offset="0.6875"/><stop stop-opacity="1" stop-color="rgb(6.544495%, 10.673523%, 44.007874%)" offset="0.695312"/><stop stop-opacity="1" stop-color="rgb(6.587219%, 10.731506%, 44.210815%)" offset="0.703125"/><stop stop-opacity="1" stop-color="rgb(6.63147%, 10.78949%, 44.413757%)" offset="0.710938"/><stop stop-opacity="1" stop-color="rgb(6.674194%, 10.847473%, 44.615173%)" offset="0.71875"/><stop stop-opacity="1" stop-color="rgb(6.716919%, 10.903931%, 44.818115%)" offset="0.726562"/><stop stop-opacity="1" stop-color="rgb(6.759644%, 10.961914%, 45.019531%)" offset="0.734375"/><stop stop-opacity="1" stop-color="rgb(6.802368%, 11.019897%, 45.222473%)" offset="0.742188"/><stop stop-opacity="1" stop-color="rgb(6.845093%, 11.077881%, 45.425415%)" offset="0.75"/><stop stop-opacity="1" stop-color="rgb(6.898499%, 11.149597%, 45.677185%)" offset="0.757812"/><stop stop-opacity="1" stop-color="rgb(6.964111%, 11.236572%, 45.980835%)" offset="0.769531"/><stop stop-opacity="1" stop-color="rgb(7.028198%, 11.323547%, 46.284485%)" offset="0.78125"/><stop stop-opacity="1" stop-color="rgb(7.092285%, 11.410522%, 46.588135%)" offset="0.792969"/><stop stop-opacity="1" stop-color="rgb(7.156372%, 11.495972%, 46.891785%)" offset="0.804688"/><stop stop-opacity="1" stop-color="rgb(7.211304%, 11.569214%, 47.145081%)" offset="0.816406"/><stop stop-opacity="1" stop-color="rgb(7.254028%, 11.627197%, 47.346497%)" offset="0.824219"/><stop stop-opacity="1" stop-color="rgb(7.296753%, 11.685181%, 47.549438%)" offset="0.832031"/><stop stop-opacity="1" stop-color="rgb(7.339478%, 11.743164%, 47.75238%)" offset="0.839844"/><stop stop-opacity="1" stop-color="rgb(7.382202%, 11.801147%, 47.953796%)" offset="0.847656"/><stop stop-opacity="1" stop-color="rgb(7.424927%, 11.859131%, 48.156738%)" offset="0.855469"/><stop stop-opacity="1" stop-color="rgb(7.469177%, 11.915588%, 48.35968%)" offset="0.863281"/><stop stop-opacity="1" stop-color="rgb(7.511902%, 11.973572%, 48.561096%)" offset="0.871094"/><stop stop-opacity="1" stop-color="rgb(7.565308%, 12.045288%, 48.814392%)" offset="0.878906"/><stop stop-opacity="1" stop-color="rgb(7.629395%, 12.132263%, 49.118042%)" offset="0.890625"/><stop stop-opacity="1" stop-color="rgb(7.693481%, 12.219238%, 49.421692%)" offset="0.902344"/><stop stop-opacity="1" stop-color="rgb(7.748413%, 12.29248%, 49.673462%)" offset="0.914062"/><stop stop-opacity="1" stop-color="rgb(7.791138%, 12.350464%, 49.876404%)" offset="0.921875"/><stop stop-opacity="1" stop-color="rgb(7.833862%, 12.408447%, 50.079346%)" offset="0.929688"/><stop stop-opacity="1" stop-color="rgb(7.876587%, 12.464905%, 50.280762%)" offset="0.9375"/><stop stop-opacity="1" stop-color="rgb(7.929993%, 12.536621%, 50.534058%)" offset="0.945312"/><stop stop-opacity="1" stop-color="rgb(7.984924%, 12.609863%, 50.787354%)" offset="0.957031"/><stop stop-opacity="1" stop-color="rgb(8.027649%, 12.667847%, 50.98877%)" offset="0.964844"/><stop stop-opacity="1" stop-color="rgb(8.081055%, 12.739563%, 51.242065%)" offset="0.972656"/><stop stop-opacity="1" stop-color="rgb(8.13446%, 12.812805%, 51.495361%)" offset="0.984375"/><stop stop-opacity="1" stop-color="rgb(8.177185%, 12.870789%, 51.698303%)" offset="0.992188"/><stop stop-opacity="1" stop-color="rgb(8.198547%, 12.89978%, 51.799011%)" offset="1"/></radialGradient><clipPath id="81b1c99fb2"><path d="M 365.363281 324.453125 L 400.613281 324.453125 L 400.613281 428 L 365.363281 428 Z M 365.363281 324.453125 " clip-rule="nonzero"/></clipPath></defs><g clip-path="url(#20125f9ee6)"><g clip-path="url(#ea0a3323ac)"><path stroke-linecap="butt" transform="matrix(0, -0.75, 0.75, 0, 330.812154, 464.343309)" fill="none" stroke-linejoin="miter" d="M 70.837958 0.000461695 L 167.416087 0.000461695 C 187.494213 0.000461695 205.082756 13.432754 210.374423 32.797338 L 229.296299 102.094217 C 231.431715 109.901509 229.801507 118.255676 224.890048 124.682759 C 219.97859 131.115051 212.348381 134.891093 204.259839 134.891093 L 33.999414 134.891093 C 25.905664 134.891093 18.275455 131.115051 13.363996 124.682759 C 8.457746 118.255676 6.827538 109.901509 8.957746 102.094217 L 27.884831 32.797338 C 33.171289 13.432754 50.76504 0.000461695 70.837958 0.000461695 Z M 70.837958 0.000461695 " stroke="url(#6693d7730f)" stroke-width="38" stroke-miterlimit="4"/></g></g><g clip-path="url(#81b1c99fb2)"><path fill="#121c74" d="M 395.9375 328.921875 L 397.121094 352.929688 C 397.371094 357.949219 395.265625 362.796875 391.433594 366.035156 C 387.28125 369.539062 385.167969 374.902344 385.84375 380.304688 C 387.855469 396.347656 389.261719 417.207031 389.261719 419.855469 C 389.261719 424.230469 385.730469 427.773438 381.371094 427.773438 C 377.015625 427.773438 373.480469 424.230469 373.480469 419.855469 C 373.480469 417.210938 374.886719 396.371094 376.894531 380.332031 C 377.566406 374.953125 375.46875 369.605469 371.347656 366.101562 L 371.265625 366.035156 C 367.460938 362.796875 365.375 357.964844 365.621094 352.964844 L 366.804688 328.921875 C 366.875 327.535156 368.015625 326.445312 369.398438 326.445312 C 370.832031 326.445312 371.992188 327.613281 371.992188 329.050781 L 371.992188 349.074219 C 371.992188 350.796875 373.382812 352.1875 375.097656 352.1875 C 376.8125 352.1875 378.203125 350.796875 378.203125 349.074219 L 378.203125 329.628906 C 378.203125 327.871094 379.621094 326.445312 381.371094 326.445312 C 383.121094 326.445312 384.542969 327.871094 384.542969 329.628906 L 384.542969 349.074219 C 384.542969 350.796875 385.929688 352.1875 387.644531 352.1875 C 389.363281 352.1875 390.75 350.796875 390.75 349.074219 L 390.75 329.050781 C 390.75 327.613281 391.914062 326.445312 393.34375 326.445312 C 394.726562 326.445312 395.867188 327.535156 395.9375 328.921875 Z M 425.039062 324.652344 L 425.039062 324.617188 C 424.992188 324.617188 424.941406 324.636719 424.894531 324.636719 C 424.832031 324.632812 424.773438 324.617188 424.710938 324.617188 C 424.488281 324.617188 424.292969 324.699219 424.082031 324.738281 C 424.074219 324.742188 424.066406 324.742188 424.058594 324.746094 C 423.695312 324.816406 423.359375 324.925781 423.046875 325.101562 C 418.59375 327.191406 411.035156 337.957031 408.109375 360.472656 C 407.15625 367.796875 407.453125 373.992188 407.980469 378.335938 C 408.484375 382.464844 410.824219 386.132812 414.289062 388.414062 C 415.972656 389.519531 416.925781 391.449219 416.792969 393.464844 L 415.117188 420.765625 C 414.84375 424.917969 418.464844 428.378906 422.757812 427.683594 C 425.960938 427.164062 428.210938 424.191406 428.210938 420.933594 L 428.210938 328.128906 C 428.210938 326.304688 426.816406 324.820312 425.039062 324.652344 Z M 425.039062 324.652344 " fill-opacity="1" fill-rule="nonzero"/></g><g fill="#050a30" fill-opacity="1"><g transform="translate(44.882813, 432.080596)"><g><path d="M 43.15625 -32.09375 L 55.015625 -110.671875 L 79.21875 -110.671875 L 79.21875 0 L 62.765625 0 L 62.765625 -79.375 L 50.75 0 L 34.3125 0 L 21.34375 -78.265625 L 21.34375 0 L 6.171875 0 L 6.171875 -110.671875 L 30.359375 -110.671875 Z M 43.15625 -32.09375 "/></g></g></g><g fill="#050a30" fill-opacity="1"><g transform="translate(130.420013, 432.080596)"><g><path d="M 23.71875 -64.03125 L 47.59375 -64.03125 L 47.59375 -48.21875 L 23.71875 -48.21875 L 23.71875 -15.8125 L 53.75 -15.8125 L 53.75 0 L 6.328125 0 L 6.328125 -110.671875 L 53.75 -110.671875 L 53.75 -94.859375 L 23.71875 -94.859375 Z M 23.71875 -64.03125 "/></g></g></g><g fill="#050a30" fill-opacity="1"><g transform="translate(188.604279, 432.080596)"><g><path d="M 21.8125 -80.15625 L 21.8125 0 L 6.171875 0 L 6.171875 -110.671875 L 27.984375 -110.671875 L 45.859375 -44.421875 L 45.859375 -110.671875 L 61.34375 -110.671875 L 61.34375 0 L 43.484375 0 Z M 21.8125 -80.15625 "/></g></g></g><g fill="#050a30" fill-opacity="1"><g transform="translate(256.117002, 432.080596)"><g><path d="M 22.921875 -110.671875 L 22.921875 -25.296875 C 22.921875 -21.296875 23.738281 -18.503906 25.375 -16.921875 C 27.007812 -15.335938 29.195312 -14.546875 31.9375 -14.546875 C 34.675781 -14.546875 36.863281 -15.335938 38.5 -16.921875 C 40.132812 -18.503906 40.953125 -21.296875 40.953125 -25.296875 L 40.953125 -110.671875 L 57.390625 -110.671875 L 57.390625 -26.40625 C 57.390625 -17.445312 55.203125 -10.566406 50.828125 -5.765625 C 46.453125 -0.972656 40 1.421875 31.46875 1.421875 C 22.925781 1.421875 16.46875 -0.972656 12.09375 -5.765625 C 7.71875 -10.566406 5.53125 -17.445312 5.53125 -26.40625 L 5.53125 -110.671875 Z M 22.921875 -110.671875 "/></g></g></g><g fill="#070e42" fill-opacity="1"><g transform="translate(319.054675, 432.080596)"><g/></g></g><g fill="#121c74" fill-opacity="1"><g transform="translate(442.293203, 432.080596)"><g><path d="M 23.71875 -61.5 L 46.171875 -61.5 L 46.171875 -45.6875 L 23.71875 -45.6875 L 23.71875 0 L 6.328125 0 L 6.328125 -110.671875 L 52.328125 -110.671875 L 52.328125 -94.859375 L 23.71875 -94.859375 Z M 23.71875 -61.5 "/></g></g></g><g fill="#121c74" fill-opacity="1"><g transform="translate(496.682849, 432.080596)"><g><path d="M 62.609375 0 L 45.0625 0 L 42.0625 -20.078125 L 20.71875 -20.078125 L 17.703125 0 L 1.734375 0 L 19.453125 -110.671875 L 44.90625 -110.671875 Z M 22.921875 -35.09375 L 39.6875 -35.09375 L 31.3125 -91.078125 Z M 22.921875 -35.09375 "/></g></g></g><g fill="#121c74" fill-opacity="1"><g transform="translate(561.033386, 432.080596)"><g><path d="M 56.765625 -41.265625 L 56.765625 -26.5625 C 56.765625 -17.601562 54.578125 -10.722656 50.203125 -5.921875 C 45.828125 -1.128906 39.367188 1.265625 30.828125 1.265625 C 22.296875 1.265625 15.84375 -1.128906 11.46875 -5.921875 C 7.09375 -10.722656 4.90625 -17.601562 4.90625 -26.5625 L 4.90625 -84.109375 C 4.90625 -93.066406 7.09375 -99.941406 11.46875 -104.734375 C 15.84375 -109.535156 22.296875 -111.9375 30.828125 -111.9375 C 39.367188 -111.9375 45.828125 -109.535156 50.203125 -104.734375 C 54.578125 -99.941406 56.765625 -93.066406 56.765625 -84.109375 L 56.765625 -73.359375 L 40.3125 -73.359375 L 40.3125 -85.21875 C 40.3125 -89.226562 39.492188 -92.046875 37.859375 -93.671875 C 36.234375 -95.304688 34.050781 -96.125 31.3125 -96.125 C 28.5625 -96.125 26.367188 -95.304688 24.734375 -93.671875 C 23.109375 -92.046875 22.296875 -89.226562 22.296875 -85.21875 L 22.296875 -25.453125 C 22.296875 -21.453125 23.109375 -18.660156 24.734375 -17.078125 C 26.367188 -15.492188 28.5625 -14.703125 31.3125 -14.703125 C 34.050781 -14.703125 36.234375 -15.492188 37.859375 -17.078125 C 39.492188 -18.660156 40.3125 -21.453125 40.3125 -25.453125 L 40.3125 -41.265625 Z M 56.765625 -41.265625 "/></g></g></g><g fill="#121c74" fill-opacity="1"><g transform="translate(622.063626, 432.080596)"><g><path d="M 6.328125 -110.671875 L 23.71875 -110.671875 L 23.71875 0 L 6.328125 0 Z M 6.328125 -110.671875 "/></g></g></g><g fill="#121c74" fill-opacity="1"><g transform="translate(652.104411, 432.080596)"><g><path d="M 6.328125 -110.671875 L 23.71875 -110.671875 L 23.71875 -15.8125 L 52.328125 -15.8125 L 52.328125 0 L 6.328125 0 Z M 6.328125 -110.671875 "/></g></g></g></svg>