<?xml version="1.0" encoding="UTF-8"?>
<svg id="Layer_1" xmlns="http://www.w3.org/2000/svg" version="1.1" viewBox="0 0 960 960">
  <!-- Generator: Adobe Illustrator 29.0.0, SVG Export Plug-In . SVG Version: 2.1.0 Build 186)  -->
  <defs>
    <style>
      .st0 {
        fill: #121c74;
        fill-rule: evenodd;
      }
    </style>
  </defs>
  <path class="st0" d="M413.4,203.9c-8,0-14.7,6.3-15.1,14.4l-6.9,139.8c-1.4,29.1,10.7,57.2,32.8,76l.5.4c23.9,20.4,36.1,51.5,32.2,82.8-11.7,93.3-19.8,214.5-19.8,229.9,0,25.4,20.5,46,45.8,46s45.8-20.6,45.8-46-8.2-136.7-19.9-230c-3.9-31.4,8.3-62.6,32.5-83,22.3-18.8,34.5-47,33.1-76.2l-6.9-139.6c-.4-8.1-7-14.4-15.1-14.4s-15.1,6.8-15.1,15.1v116.5c0,10-8.1,18.1-18,18.1s-18-8.1-18-18.1v-113.1c0-10.2-8.2-18.5-18.4-18.5s-18.4,8.3-18.4,18.5v113.1c0,10-8.1,18.1-18,18.1s-18-8.1-18-18.1v-116.5c0-8.4-6.7-15.1-15.1-15.1ZM705.2,35c32.1-.9,58.9,24.3,60.7,56.3v777.4c-2.4,34.9-33.2,60.7-68.2,55.7l-433.6-105.3c-39.1-10.7-67.5-46.2-70.1-86.7V227c3.2-40.8,30.3-74.2,69.2-85.9l428.4-104.3c4.5-.6,9.1-1.7,13.6-1.8h0Z"/>
</svg>