<svg xmlns="http://www.w3.org/2000/svg" xmlns:xlink="http://www.w3.org/1999/xlink" zoomAndPan="magnify" preserveAspectRatio="xMidYMid meet" version="1.0" viewBox="84.27 176.16 620.73 400.05"><defs><g/><clipPath id="f8f923e3ee"><path d="M 496.425781 206 L 674.925781 206 L 674.925781 547 L 496.425781 547 Z M 496.425781 206 " clip-rule="nonzero"/></clipPath><clipPath id="8c7a6bd073"><path d="M 496.425781 477.976562 L 496.425781 274.398438 C 496.425781 259.339844 506.5 246.148438 521.023438 242.179688 L 650.398438 206.847656 C 656.25 205.25 662.515625 206.472656 667.339844 210.15625 C 672.164062 213.835938 674.996094 219.558594 674.996094 225.628906 L 674.996094 526.746094 C 674.996094 532.8125 672.164062 538.535156 667.339844 542.21875 C 662.515625 545.902344 656.25 547.125 650.398438 545.527344 L 521.023438 510.191406 C 506.5 506.226562 496.425781 493.03125 496.425781 477.976562 Z M 496.425781 477.976562 " clip-rule="nonzero"/></clipPath><radialGradient gradientTransform="matrix(1.333333, 0, 0, 1.333333, -0.0000146802, -0.00000175417)" gradientUnits="userSpaceOnUse" r="384.087706" cx="6.029041" id="a349205d5c" cy="0" fx="6.029041" fy="0"><stop stop-opacity="1" stop-color="rgb(2.720642%, 5.528259%, 25.999451%)" offset="0"/><stop stop-opacity="1" stop-color="rgb(2.774048%, 5.599976%, 26.252747%)" offset="0.0078125"/><stop stop-opacity="1" stop-color="rgb(2.838135%, 5.686951%, 26.556396%)" offset="0.0195312"/><stop stop-opacity="1" stop-color="rgb(2.903748%, 5.773926%, 26.860046%)" offset="0.03125"/><stop stop-opacity="1" stop-color="rgb(2.967834%, 5.859375%, 27.163696%)" offset="0.0429688"/><stop stop-opacity="1" stop-color="rgb(3.031921%, 5.94635%, 27.467346%)" offset="0.0546875"/><stop stop-opacity="1" stop-color="rgb(3.096008%, 6.033325%, 27.76947%)" offset="0.0664062"/><stop stop-opacity="1" stop-color="rgb(3.161621%, 6.1203%, 28.07312%)" offset="0.078125"/><stop stop-opacity="1" stop-color="rgb(3.225708%, 6.207275%, 28.37677%)" offset="0.0898438"/><stop stop-opacity="1" stop-color="rgb(3.289795%, 6.29425%, 28.68042%)" offset="0.101562"/><stop stop-opacity="1" stop-color="rgb(3.353882%, 6.3797%, 28.98407%)" offset="0.113281"/><stop stop-opacity="1" stop-color="rgb(3.419495%, 6.466675%, 29.28772%)" offset="0.125"/><stop stop-opacity="1" stop-color="rgb(3.483582%, 6.55365%, 29.59137%)" offset="0.136719"/><stop stop-opacity="1" stop-color="rgb(3.547668%, 6.640625%, 29.89502%)" offset="0.148438"/><stop stop-opacity="1" stop-color="rgb(3.611755%, 6.7276%, 30.198669%)" offset="0.160156"/><stop stop-opacity="1" stop-color="rgb(3.675842%, 6.814575%, 30.502319%)" offset="0.171875"/><stop stop-opacity="1" stop-color="rgb(3.741455%, 6.900024%, 30.805969%)" offset="0.183594"/><stop stop-opacity="1" stop-color="rgb(3.805542%, 6.987%, 31.109619%)" offset="0.195312"/><stop stop-opacity="1" stop-color="rgb(3.869629%, 7.073975%, 31.411743%)" offset="0.207031"/><stop stop-opacity="1" stop-color="rgb(3.933716%, 7.16095%, 31.715393%)" offset="0.21875"/><stop stop-opacity="1" stop-color="rgb(3.999329%, 7.247925%, 32.019043%)" offset="0.230469"/><stop stop-opacity="1" stop-color="rgb(4.063416%, 7.3349%, 32.322693%)" offset="0.242188"/><stop stop-opacity="1" stop-color="rgb(4.116821%, 7.406616%, 32.575989%)" offset="0.253906"/><stop stop-opacity="1" stop-color="rgb(4.159546%, 7.4646%, 32.778931%)" offset="0.261719"/><stop stop-opacity="1" stop-color="rgb(4.202271%, 7.522583%, 32.980347%)" offset="0.269531"/><stop stop-opacity="1" stop-color="rgb(4.246521%, 7.580566%, 33.183289%)" offset="0.277344"/><stop stop-opacity="1" stop-color="rgb(4.289246%, 7.63855%, 33.38623%)" offset="0.285156"/><stop stop-opacity="1" stop-color="rgb(4.33197%, 7.696533%, 33.587646%)" offset="0.292969"/><stop stop-opacity="1" stop-color="rgb(4.374695%, 7.754517%, 33.790588%)" offset="0.300781"/><stop stop-opacity="1" stop-color="rgb(4.417419%, 7.810974%, 33.992004%)" offset="0.308594"/><stop stop-opacity="1" stop-color="rgb(4.460144%, 7.868958%, 34.194946%)" offset="0.316406"/><stop stop-opacity="1" stop-color="rgb(4.504395%, 7.926941%, 34.397888%)" offset="0.324219"/><stop stop-opacity="1" stop-color="rgb(4.547119%, 7.984924%, 34.599304%)" offset="0.332031"/><stop stop-opacity="1" stop-color="rgb(4.589844%, 8.042908%, 34.802246%)" offset="0.339844"/><stop stop-opacity="1" stop-color="rgb(4.632568%, 8.100891%, 35.003662%)" offset="0.347656"/><stop stop-opacity="1" stop-color="rgb(4.675293%, 8.158875%, 35.206604%)" offset="0.355469"/><stop stop-opacity="1" stop-color="rgb(4.718018%, 8.216858%, 35.409546%)" offset="0.363281"/><stop stop-opacity="1" stop-color="rgb(4.762268%, 8.274841%, 35.610962%)" offset="0.371094"/><stop stop-opacity="1" stop-color="rgb(4.804993%, 8.331299%, 35.813904%)" offset="0.378906"/><stop stop-opacity="1" stop-color="rgb(4.847717%, 8.389282%, 36.01532%)" offset="0.386719"/><stop stop-opacity="1" stop-color="rgb(4.890442%, 8.447266%, 36.218262%)" offset="0.394531"/><stop stop-opacity="1" stop-color="rgb(4.933167%, 8.505249%, 36.421204%)" offset="0.402344"/><stop stop-opacity="1" stop-color="rgb(4.975891%, 8.563232%, 36.62262%)" offset="0.410156"/><stop stop-opacity="1" stop-color="rgb(5.020142%, 8.621216%, 36.825562%)" offset="0.417969"/><stop stop-opacity="1" stop-color="rgb(5.062866%, 8.679199%, 37.026978%)" offset="0.425781"/><stop stop-opacity="1" stop-color="rgb(5.105591%, 8.737183%, 37.229919%)" offset="0.433594"/><stop stop-opacity="1" stop-color="rgb(5.148315%, 8.795166%, 37.432861%)" offset="0.441406"/><stop stop-opacity="1" stop-color="rgb(5.19104%, 8.851624%, 37.634277%)" offset="0.449219"/><stop stop-opacity="1" stop-color="rgb(5.233765%, 8.909607%, 37.837219%)" offset="0.457031"/><stop stop-opacity="1" stop-color="rgb(5.276489%, 8.96759%, 38.040161%)" offset="0.464844"/><stop stop-opacity="1" stop-color="rgb(5.32074%, 9.025574%, 38.241577%)" offset="0.472656"/><stop stop-opacity="1" stop-color="rgb(5.363464%, 9.083557%, 38.444519%)" offset="0.480469"/><stop stop-opacity="1" stop-color="rgb(5.406189%, 9.141541%, 38.645935%)" offset="0.488281"/><stop stop-opacity="1" stop-color="rgb(5.448914%, 9.199524%, 38.848877%)" offset="0.496094"/><stop stop-opacity="1" stop-color="rgb(5.502319%, 9.27124%, 39.102173%)" offset="0.503906"/><stop stop-opacity="1" stop-color="rgb(5.567932%, 9.358215%, 39.404297%)" offset="0.515625"/><stop stop-opacity="1" stop-color="rgb(5.632019%, 9.443665%, 39.707947%)" offset="0.527344"/><stop stop-opacity="1" stop-color="rgb(5.696106%, 9.53064%, 40.011597%)" offset="0.539062"/><stop stop-opacity="1" stop-color="rgb(5.760193%, 9.617615%, 40.315247%)" offset="0.550781"/><stop stop-opacity="1" stop-color="rgb(5.82428%, 9.70459%, 40.618896%)" offset="0.5625"/><stop stop-opacity="1" stop-color="rgb(5.889893%, 9.791565%, 40.922546%)" offset="0.574219"/><stop stop-opacity="1" stop-color="rgb(5.953979%, 9.87854%, 41.226196%)" offset="0.585938"/><stop stop-opacity="1" stop-color="rgb(6.018066%, 9.963989%, 41.529846%)" offset="0.597656"/><stop stop-opacity="1" stop-color="rgb(6.082153%, 10.050964%, 41.833496%)" offset="0.609375"/><stop stop-opacity="1" stop-color="rgb(6.147766%, 10.137939%, 42.137146%)" offset="0.621094"/><stop stop-opacity="1" stop-color="rgb(6.201172%, 10.211182%, 42.390442%)" offset="0.632812"/><stop stop-opacity="1" stop-color="rgb(6.243896%, 10.269165%, 42.591858%)" offset="0.640625"/><stop stop-opacity="1" stop-color="rgb(6.286621%, 10.327148%, 42.7948%)" offset="0.648438"/><stop stop-opacity="1" stop-color="rgb(6.329346%, 10.383606%, 42.996216%)" offset="0.65625"/><stop stop-opacity="1" stop-color="rgb(6.373596%, 10.441589%, 43.199158%)" offset="0.664062"/><stop stop-opacity="1" stop-color="rgb(6.416321%, 10.499573%, 43.4021%)" offset="0.671875"/><stop stop-opacity="1" stop-color="rgb(6.459045%, 10.557556%, 43.603516%)" offset="0.679688"/><stop stop-opacity="1" stop-color="rgb(6.50177%, 10.61554%, 43.806458%)" offset="0.6875"/><stop stop-opacity="1" stop-color="rgb(6.544495%, 10.673523%, 44.007874%)" offset="0.695312"/><stop stop-opacity="1" stop-color="rgb(6.587219%, 10.731506%, 44.210815%)" offset="0.703125"/><stop stop-opacity="1" stop-color="rgb(6.63147%, 10.78949%, 44.413757%)" offset="0.710938"/><stop stop-opacity="1" stop-color="rgb(6.674194%, 10.847473%, 44.615173%)" offset="0.71875"/><stop stop-opacity="1" stop-color="rgb(6.716919%, 10.903931%, 44.818115%)" offset="0.726562"/><stop stop-opacity="1" stop-color="rgb(6.759644%, 10.961914%, 45.019531%)" offset="0.734375"/><stop stop-opacity="1" stop-color="rgb(6.802368%, 11.019897%, 45.222473%)" offset="0.742188"/><stop stop-opacity="1" stop-color="rgb(6.845093%, 11.077881%, 45.425415%)" offset="0.75"/><stop stop-opacity="1" stop-color="rgb(6.898499%, 11.149597%, 45.677185%)" offset="0.757812"/><stop stop-opacity="1" stop-color="rgb(6.964111%, 11.236572%, 45.980835%)" offset="0.769531"/><stop stop-opacity="1" stop-color="rgb(7.028198%, 11.323547%, 46.284485%)" offset="0.78125"/><stop stop-opacity="1" stop-color="rgb(7.092285%, 11.410522%, 46.588135%)" offset="0.792969"/><stop stop-opacity="1" stop-color="rgb(7.156372%, 11.495972%, 46.891785%)" offset="0.804688"/><stop stop-opacity="1" stop-color="rgb(7.211304%, 11.569214%, 47.145081%)" offset="0.816406"/><stop stop-opacity="1" stop-color="rgb(7.254028%, 11.627197%, 47.346497%)" offset="0.824219"/><stop stop-opacity="1" stop-color="rgb(7.296753%, 11.685181%, 47.549438%)" offset="0.832031"/><stop stop-opacity="1" stop-color="rgb(7.339478%, 11.743164%, 47.75238%)" offset="0.839844"/><stop stop-opacity="1" stop-color="rgb(7.382202%, 11.801147%, 47.953796%)" offset="0.847656"/><stop stop-opacity="1" stop-color="rgb(7.424927%, 11.859131%, 48.156738%)" offset="0.855469"/><stop stop-opacity="1" stop-color="rgb(7.469177%, 11.915588%, 48.35968%)" offset="0.863281"/><stop stop-opacity="1" stop-color="rgb(7.511902%, 11.973572%, 48.561096%)" offset="0.871094"/><stop stop-opacity="1" stop-color="rgb(7.565308%, 12.045288%, 48.814392%)" offset="0.878906"/><stop stop-opacity="1" stop-color="rgb(7.629395%, 12.132263%, 49.118042%)" offset="0.890625"/><stop stop-opacity="1" stop-color="rgb(7.693481%, 12.219238%, 49.421692%)" offset="0.902344"/><stop stop-opacity="1" stop-color="rgb(7.748413%, 12.29248%, 49.673462%)" offset="0.914062"/><stop stop-opacity="1" stop-color="rgb(7.791138%, 12.350464%, 49.876404%)" offset="0.921875"/><stop stop-opacity="1" stop-color="rgb(7.833862%, 12.408447%, 50.079346%)" offset="0.929688"/><stop stop-opacity="1" stop-color="rgb(7.876587%, 12.464905%, 50.280762%)" offset="0.9375"/><stop stop-opacity="1" stop-color="rgb(7.929993%, 12.536621%, 50.534058%)" offset="0.945312"/><stop stop-opacity="1" stop-color="rgb(7.984924%, 12.609863%, 50.787354%)" offset="0.957031"/><stop stop-opacity="1" stop-color="rgb(8.027649%, 12.667847%, 50.98877%)" offset="0.964844"/><stop stop-opacity="1" stop-color="rgb(8.081055%, 12.739563%, 51.242065%)" offset="0.972656"/><stop stop-opacity="1" stop-color="rgb(8.13446%, 12.812805%, 51.495361%)" offset="0.984375"/><stop stop-opacity="1" stop-color="rgb(8.177185%, 12.870789%, 51.698303%)" offset="0.992188"/><stop stop-opacity="1" stop-color="rgb(8.198547%, 12.89978%, 51.799011%)" offset="1"/></radialGradient><clipPath id="3e7b5df6ce"><path d="M 554.199219 274.296875 L 625.449219 274.296875 L 625.449219 486 L 554.199219 486 Z M 554.199219 274.296875 " clip-rule="nonzero"/></clipPath></defs><g clip-path="url(#f8f923e3ee)"><g clip-path="url(#8c7a6bd073)"><path stroke-linecap="butt" transform="matrix(0, -0.75, 0.75, 0, 496.42493, 552.244025)" fill="none" stroke-linejoin="miter" d="M 99.023288 0.00113439 L 370.460802 0.00113439 C 390.538927 0.00113439 408.12747 13.433427 413.419137 32.798011 L 460.528514 205.298019 C 462.658723 213.100103 461.028514 221.45427 456.117056 227.886562 C 451.210805 234.318854 443.580597 238.094896 435.486846 238.094896 L 33.997243 238.094896 C 25.908701 238.094896 18.278493 234.318854 13.367034 227.886562 C 8.455576 221.45427 6.825367 213.100103 8.955576 205.298019 L 56.070161 32.798011 C 61.35662 13.433427 78.950371 0.00113439 99.023288 0.00113439 Z M 99.023288 0.00113439 " stroke="url(#a349205d5c)" stroke-width="60" stroke-miterlimit="4"/></g></g><g clip-path="url(#3e7b5df6ce)"><path fill="#121c74" d="M 616.546875 283.429688 L 618.964844 332.382812 C 619.46875 342.621094 615.175781 352.503906 607.359375 359.105469 C 598.898438 366.25 594.585938 377.191406 595.96875 388.203125 C 600.066406 420.917969 602.9375 463.457031 602.9375 468.855469 C 602.9375 477.773438 595.730469 485.003906 586.847656 485.003906 C 577.960938 485.003906 570.753906 477.773438 570.753906 468.855469 C 570.753906 463.460938 573.621094 420.96875 577.714844 388.261719 C 579.089844 377.292969 574.808594 366.390625 566.40625 359.246094 L 566.242188 359.105469 C 558.476562 352.503906 554.222656 342.652344 554.726562 332.453125 L 557.144531 283.429688 C 557.285156 280.601562 559.609375 278.378906 562.429688 278.378906 C 565.351562 278.378906 567.71875 280.757812 567.71875 283.6875 L 567.71875 324.523438 C 567.71875 328.03125 570.554688 330.875 574.050781 330.875 C 577.546875 330.875 580.382812 328.03125 580.382812 324.523438 L 580.382812 284.867188 C 580.382812 281.285156 583.277344 278.378906 586.847656 278.378906 C 590.417969 278.378906 593.308594 281.285156 593.308594 284.867188 L 593.308594 324.523438 C 593.308594 328.03125 596.144531 330.875 599.640625 330.875 C 603.136719 330.875 605.972656 328.03125 605.972656 324.523438 L 605.972656 283.6875 C 605.972656 280.757812 608.339844 278.378906 611.261719 278.378906 C 614.082031 278.378906 616.40625 280.601562 616.546875 283.429688 Z M 675.890625 274.71875 L 675.890625 274.652344 C 675.796875 274.652344 675.6875 274.683594 675.59375 274.6875 C 675.464844 274.683594 675.347656 274.652344 675.21875 274.652344 C 674.765625 274.652344 674.367188 274.820312 673.941406 274.898438 C 673.925781 274.90625 673.910156 274.90625 673.890625 274.910156 C 673.152344 275.054688 672.46875 275.277344 671.828125 275.632812 C 662.75 279.902344 647.335938 301.855469 641.371094 347.765625 C 639.429688 362.703125 640.03125 375.335938 641.109375 384.195312 C 642.132812 392.609375 646.90625 400.09375 653.96875 404.742188 C 657.398438 406.996094 659.347656 410.933594 659.070312 415.039062 L 655.65625 470.710938 C 655.101562 479.183594 662.488281 486.238281 671.234375 484.820312 C 677.773438 483.757812 682.355469 477.695312 682.355469 471.050781 L 682.355469 281.8125 C 682.355469 278.089844 679.511719 275.066406 675.890625 274.71875 Z M 675.890625 274.71875 " fill-opacity="1" fill-rule="nonzero"/></g><g fill="#050a30" fill-opacity="1"><g transform="translate(74.999999, 373.788097)"><g><path d="M 64.828125 -48.203125 L 82.640625 -166.21875 L 118.96875 -166.21875 L 118.96875 0 L 94.265625 0 L 94.265625 -119.203125 L 76.21875 0 L 51.53125 0 L 32.0625 -117.546875 L 32.0625 0 L 9.265625 0 L 9.265625 -166.21875 L 45.59375 -166.21875 Z M 64.828125 -48.203125 "/></g></g></g><g fill="#050a30" fill-opacity="1"><g transform="translate(203.454982, 373.788097)"><g><path d="M 35.625 -96.171875 L 71.46875 -96.171875 L 71.46875 -72.421875 L 35.625 -72.421875 L 35.625 -23.75 L 80.734375 -23.75 L 80.734375 0 L 9.5 0 L 9.5 -166.21875 L 80.734375 -166.21875 L 80.734375 -142.46875 L 35.625 -142.46875 Z M 35.625 -96.171875 "/></g></g></g><g fill="#050a30" fill-opacity="1"><g transform="translate(290.832858, 373.788097)"><g><path d="M 32.765625 -120.390625 L 32.765625 0 L 9.265625 0 L 9.265625 -166.21875 L 42.03125 -166.21875 L 68.859375 -66.71875 L 68.859375 -166.21875 L 92.125 -166.21875 L 92.125 0 L 65.296875 0 Z M 32.765625 -120.390625 "/></g></g></g><g fill="#050a30" fill-opacity="1"><g transform="translate(392.219688, 373.788097)"><g><path d="M 34.4375 -166.21875 L 34.4375 -38 C 34.4375 -31.976562 35.660156 -27.78125 38.109375 -25.40625 C 40.566406 -23.03125 43.851562 -21.84375 47.96875 -21.84375 C 52.082031 -21.84375 55.363281 -23.03125 57.8125 -25.40625 C 60.269531 -27.78125 61.5 -31.976562 61.5 -38 L 61.5 -166.21875 L 86.203125 -166.21875 L 86.203125 -39.65625 C 86.203125 -26.195312 82.914062 -15.863281 76.34375 -8.65625 C 69.769531 -1.457031 60.070312 2.140625 47.25 2.140625 C 34.425781 2.140625 24.726562 -1.457031 18.15625 -8.65625 C 11.59375 -15.863281 8.3125 -26.195312 8.3125 -39.65625 L 8.3125 -166.21875 Z M 34.4375 -166.21875 "/></g></g></g><g fill="#070e42" fill-opacity="1"><g transform="translate(486.735965, 373.788097)"><g/></g></g><g fill="#121c74" fill-opacity="1"><g transform="translate(125.628089, 558.505223)"><g><path d="M 35.625 -92.375 L 69.34375 -92.375 L 69.34375 -68.625 L 35.625 -68.625 L 35.625 0 L 9.5 0 L 9.5 -166.21875 L 78.59375 -166.21875 L 78.59375 -142.46875 L 35.625 -142.46875 Z M 35.625 -92.375 "/></g></g></g><g fill="#121c74" fill-opacity="1"><g transform="translate(207.307417, 558.505223)"><g><path d="M 94.03125 0 L 67.671875 0 L 63.15625 -30.15625 L 31.109375 -30.15625 L 26.59375 0 L 2.609375 0 L 29.203125 -166.21875 L 67.4375 -166.21875 Z M 34.4375 -52.71875 L 59.59375 -52.71875 L 47.015625 -136.765625 Z M 34.4375 -52.71875 "/></g></g></g><g fill="#121c74" fill-opacity="1"><g transform="translate(303.945453, 558.505223)"><g><path d="M 85.25 -61.96875 L 85.25 -39.890625 C 85.25 -26.429688 81.960938 -16.097656 75.390625 -8.890625 C 68.816406 -1.691406 59.117188 1.90625 46.296875 1.90625 C 33.472656 1.90625 23.773438 -1.691406 17.203125 -8.890625 C 10.640625 -16.097656 7.359375 -26.429688 7.359375 -39.890625 L 7.359375 -126.328125 C 7.359375 -139.785156 10.640625 -150.113281 17.203125 -157.3125 C 23.773438 -164.507812 33.472656 -168.109375 46.296875 -168.109375 C 59.117188 -168.109375 68.816406 -164.507812 75.390625 -157.3125 C 81.960938 -150.113281 85.25 -139.785156 85.25 -126.328125 L 85.25 -110.171875 L 60.546875 -110.171875 L 60.546875 -127.984375 C 60.546875 -134.003906 59.316406 -138.238281 56.859375 -140.6875 C 54.410156 -143.144531 51.128906 -144.375 47.015625 -144.375 C 42.898438 -144.375 39.613281 -143.144531 37.15625 -140.6875 C 34.707031 -138.238281 33.484375 -134.003906 33.484375 -127.984375 L 33.484375 -38.234375 C 33.484375 -32.210938 34.707031 -28.015625 37.15625 -25.640625 C 39.613281 -23.265625 42.898438 -22.078125 47.015625 -22.078125 C 51.128906 -22.078125 54.410156 -23.265625 56.859375 -25.640625 C 59.316406 -28.015625 60.546875 -32.210938 60.546875 -38.234375 L 60.546875 -61.96875 Z M 85.25 -61.96875 "/></g></g></g><g fill="#121c74" fill-opacity="1"><g transform="translate(395.597254, 558.505223)"><g><path d="M 9.5 -166.21875 L 35.625 -166.21875 L 35.625 0 L 9.5 0 Z M 9.5 -166.21875 "/></g></g></g><g fill="#121c74" fill-opacity="1"><g transform="translate(440.710824, 558.505223)"><g><path d="M 9.5 -166.21875 L 35.625 -166.21875 L 35.625 -23.75 L 78.59375 -23.75 L 78.59375 0 L 9.5 0 Z M 9.5 -166.21875 "/></g></g></g></svg>