<svg xmlns="http://www.w3.org/2000/svg" xmlns:xlink="http://www.w3.org/1999/xlink" zoomAndPan="magnify" preserveAspectRatio="xMidYMid meet" version="1.0" viewBox="84.27 183.75 585.93 376.66"><defs><g/><clipPath id="e07a966f35"><path d="M 496.425781 207 L 646.757812 207 L 646.757812 492 L 496.425781 492 Z M 496.425781 207 " clip-rule="nonzero"/></clipPath><clipPath id="c5ece3a8db"><path d="M 496.425781 430.941406 L 496.425781 267.8125 C 496.425781 252.753906 506.5 239.5625 521.023438 235.59375 L 622.023438 208.011719 C 627.878906 206.410156 634.144531 207.632812 638.964844 211.316406 C 643.789062 215 646.621094 220.722656 646.621094 226.792969 L 646.621094 471.960938 C 646.621094 478.027344 643.789062 483.75 638.964844 487.433594 C 634.144531 491.117188 627.878906 492.339844 622.023438 490.738281 L 521.023438 463.15625 C 506.5 459.1875 496.425781 445.996094 496.425781 430.941406 Z M 496.425781 430.941406 " clip-rule="nonzero"/></clipPath><radialGradient gradientTransform="matrix(1.257211, 0, 0, 1.257211, -0.000000914494, 0.0000385767)" gradientUnits="userSpaceOnUse" r="321.362834" cx="6.02988" id="7176f9486d" cy="0" fx="6.02988" fy="0"><stop stop-opacity="1" stop-color="rgb(2.720642%, 5.528259%, 25.999451%)" offset="0"/><stop stop-opacity="1" stop-color="rgb(2.774048%, 5.599976%, 26.252747%)" offset="0.0078125"/><stop stop-opacity="1" stop-color="rgb(2.838135%, 5.686951%, 26.556396%)" offset="0.0195312"/><stop stop-opacity="1" stop-color="rgb(2.903748%, 5.773926%, 26.860046%)" offset="0.03125"/><stop stop-opacity="1" stop-color="rgb(2.967834%, 5.859375%, 27.163696%)" offset="0.0429688"/><stop stop-opacity="1" stop-color="rgb(3.031921%, 5.94635%, 27.467346%)" offset="0.0546875"/><stop stop-opacity="1" stop-color="rgb(3.096008%, 6.033325%, 27.76947%)" offset="0.0664062"/><stop stop-opacity="1" stop-color="rgb(3.161621%, 6.1203%, 28.07312%)" offset="0.078125"/><stop stop-opacity="1" stop-color="rgb(3.225708%, 6.207275%, 28.37677%)" offset="0.0898438"/><stop stop-opacity="1" stop-color="rgb(3.289795%, 6.29425%, 28.68042%)" offset="0.101562"/><stop stop-opacity="1" stop-color="rgb(3.353882%, 6.3797%, 28.98407%)" offset="0.113281"/><stop stop-opacity="1" stop-color="rgb(3.419495%, 6.466675%, 29.28772%)" offset="0.125"/><stop stop-opacity="1" stop-color="rgb(3.483582%, 6.55365%, 29.59137%)" offset="0.136719"/><stop stop-opacity="1" stop-color="rgb(3.547668%, 6.640625%, 29.89502%)" offset="0.148438"/><stop stop-opacity="1" stop-color="rgb(3.611755%, 6.7276%, 30.198669%)" offset="0.160156"/><stop stop-opacity="1" stop-color="rgb(3.675842%, 6.814575%, 30.502319%)" offset="0.171875"/><stop stop-opacity="1" stop-color="rgb(3.741455%, 6.900024%, 30.805969%)" offset="0.183594"/><stop stop-opacity="1" stop-color="rgb(3.805542%, 6.987%, 31.109619%)" offset="0.195312"/><stop stop-opacity="1" stop-color="rgb(3.869629%, 7.073975%, 31.411743%)" offset="0.207031"/><stop stop-opacity="1" stop-color="rgb(3.933716%, 7.16095%, 31.715393%)" offset="0.21875"/><stop stop-opacity="1" stop-color="rgb(3.999329%, 7.247925%, 32.019043%)" offset="0.230469"/><stop stop-opacity="1" stop-color="rgb(4.063416%, 7.3349%, 32.322693%)" offset="0.242188"/><stop stop-opacity="1" stop-color="rgb(4.116821%, 7.406616%, 32.575989%)" offset="0.253906"/><stop stop-opacity="1" stop-color="rgb(4.159546%, 7.4646%, 32.778931%)" offset="0.261719"/><stop stop-opacity="1" stop-color="rgb(4.202271%, 7.522583%, 32.980347%)" offset="0.269531"/><stop stop-opacity="1" stop-color="rgb(4.246521%, 7.580566%, 33.183289%)" offset="0.277344"/><stop stop-opacity="1" stop-color="rgb(4.289246%, 7.63855%, 33.38623%)" offset="0.285156"/><stop stop-opacity="1" stop-color="rgb(4.33197%, 7.696533%, 33.587646%)" offset="0.292969"/><stop stop-opacity="1" stop-color="rgb(4.374695%, 7.754517%, 33.790588%)" offset="0.300781"/><stop stop-opacity="1" stop-color="rgb(4.417419%, 7.810974%, 33.992004%)" offset="0.308594"/><stop stop-opacity="1" stop-color="rgb(4.460144%, 7.868958%, 34.194946%)" offset="0.316406"/><stop stop-opacity="1" stop-color="rgb(4.504395%, 7.926941%, 34.397888%)" offset="0.324219"/><stop stop-opacity="1" stop-color="rgb(4.547119%, 7.984924%, 34.599304%)" offset="0.332031"/><stop stop-opacity="1" stop-color="rgb(4.589844%, 8.042908%, 34.802246%)" offset="0.339844"/><stop stop-opacity="1" stop-color="rgb(4.632568%, 8.100891%, 35.003662%)" offset="0.347656"/><stop stop-opacity="1" stop-color="rgb(4.675293%, 8.158875%, 35.206604%)" offset="0.355469"/><stop stop-opacity="1" stop-color="rgb(4.718018%, 8.216858%, 35.409546%)" offset="0.363281"/><stop stop-opacity="1" stop-color="rgb(4.762268%, 8.274841%, 35.610962%)" offset="0.371094"/><stop stop-opacity="1" stop-color="rgb(4.804993%, 8.331299%, 35.813904%)" offset="0.378906"/><stop stop-opacity="1" stop-color="rgb(4.847717%, 8.389282%, 36.01532%)" offset="0.386719"/><stop stop-opacity="1" stop-color="rgb(4.890442%, 8.447266%, 36.218262%)" offset="0.394531"/><stop stop-opacity="1" stop-color="rgb(4.933167%, 8.505249%, 36.421204%)" offset="0.402344"/><stop stop-opacity="1" stop-color="rgb(4.975891%, 8.563232%, 36.62262%)" offset="0.410156"/><stop stop-opacity="1" stop-color="rgb(5.020142%, 8.621216%, 36.825562%)" offset="0.417969"/><stop stop-opacity="1" stop-color="rgb(5.062866%, 8.679199%, 37.026978%)" offset="0.425781"/><stop stop-opacity="1" stop-color="rgb(5.105591%, 8.737183%, 37.229919%)" offset="0.433594"/><stop stop-opacity="1" stop-color="rgb(5.148315%, 8.795166%, 37.432861%)" offset="0.441406"/><stop stop-opacity="1" stop-color="rgb(5.19104%, 8.851624%, 37.634277%)" offset="0.449219"/><stop stop-opacity="1" stop-color="rgb(5.233765%, 8.909607%, 37.837219%)" offset="0.457031"/><stop stop-opacity="1" stop-color="rgb(5.276489%, 8.96759%, 38.040161%)" offset="0.464844"/><stop stop-opacity="1" stop-color="rgb(5.32074%, 9.025574%, 38.241577%)" offset="0.472656"/><stop stop-opacity="1" stop-color="rgb(5.363464%, 9.083557%, 38.444519%)" offset="0.480469"/><stop stop-opacity="1" stop-color="rgb(5.406189%, 9.141541%, 38.645935%)" offset="0.488281"/><stop stop-opacity="1" stop-color="rgb(5.448914%, 9.199524%, 38.848877%)" offset="0.496094"/><stop stop-opacity="1" stop-color="rgb(5.502319%, 9.27124%, 39.102173%)" offset="0.503906"/><stop stop-opacity="1" stop-color="rgb(5.567932%, 9.358215%, 39.404297%)" offset="0.515625"/><stop stop-opacity="1" stop-color="rgb(5.632019%, 9.443665%, 39.707947%)" offset="0.527344"/><stop stop-opacity="1" stop-color="rgb(5.696106%, 9.53064%, 40.011597%)" offset="0.539062"/><stop stop-opacity="1" stop-color="rgb(5.760193%, 9.617615%, 40.315247%)" offset="0.550781"/><stop stop-opacity="1" stop-color="rgb(5.82428%, 9.70459%, 40.618896%)" offset="0.5625"/><stop stop-opacity="1" stop-color="rgb(5.889893%, 9.791565%, 40.922546%)" offset="0.574219"/><stop stop-opacity="1" stop-color="rgb(5.953979%, 9.87854%, 41.226196%)" offset="0.585938"/><stop stop-opacity="1" stop-color="rgb(6.018066%, 9.963989%, 41.529846%)" offset="0.597656"/><stop stop-opacity="1" stop-color="rgb(6.082153%, 10.050964%, 41.833496%)" offset="0.609375"/><stop stop-opacity="1" stop-color="rgb(6.147766%, 10.137939%, 42.137146%)" offset="0.621094"/><stop stop-opacity="1" stop-color="rgb(6.201172%, 10.211182%, 42.390442%)" offset="0.632812"/><stop stop-opacity="1" stop-color="rgb(6.243896%, 10.269165%, 42.591858%)" offset="0.640625"/><stop stop-opacity="1" stop-color="rgb(6.286621%, 10.327148%, 42.7948%)" offset="0.648438"/><stop stop-opacity="1" stop-color="rgb(6.329346%, 10.383606%, 42.996216%)" offset="0.65625"/><stop stop-opacity="1" stop-color="rgb(6.373596%, 10.441589%, 43.199158%)" offset="0.664062"/><stop stop-opacity="1" stop-color="rgb(6.416321%, 10.499573%, 43.4021%)" offset="0.671875"/><stop stop-opacity="1" stop-color="rgb(6.459045%, 10.557556%, 43.603516%)" offset="0.679688"/><stop stop-opacity="1" stop-color="rgb(6.50177%, 10.61554%, 43.806458%)" offset="0.6875"/><stop stop-opacity="1" stop-color="rgb(6.544495%, 10.673523%, 44.007874%)" offset="0.695312"/><stop stop-opacity="1" stop-color="rgb(6.587219%, 10.731506%, 44.210815%)" offset="0.703125"/><stop stop-opacity="1" stop-color="rgb(6.63147%, 10.78949%, 44.413757%)" offset="0.710938"/><stop stop-opacity="1" stop-color="rgb(6.674194%, 10.847473%, 44.615173%)" offset="0.71875"/><stop stop-opacity="1" stop-color="rgb(6.716919%, 10.903931%, 44.818115%)" offset="0.726562"/><stop stop-opacity="1" stop-color="rgb(6.759644%, 10.961914%, 45.019531%)" offset="0.734375"/><stop stop-opacity="1" stop-color="rgb(6.802368%, 11.019897%, 45.222473%)" offset="0.742188"/><stop stop-opacity="1" stop-color="rgb(6.845093%, 11.077881%, 45.425415%)" offset="0.75"/><stop stop-opacity="1" stop-color="rgb(6.898499%, 11.149597%, 45.677185%)" offset="0.757812"/><stop stop-opacity="1" stop-color="rgb(6.964111%, 11.236572%, 45.980835%)" offset="0.769531"/><stop stop-opacity="1" stop-color="rgb(7.028198%, 11.323547%, 46.284485%)" offset="0.78125"/><stop stop-opacity="1" stop-color="rgb(7.092285%, 11.410522%, 46.588135%)" offset="0.792969"/><stop stop-opacity="1" stop-color="rgb(7.156372%, 11.495972%, 46.891785%)" offset="0.804688"/><stop stop-opacity="1" stop-color="rgb(7.211304%, 11.569214%, 47.145081%)" offset="0.816406"/><stop stop-opacity="1" stop-color="rgb(7.254028%, 11.627197%, 47.346497%)" offset="0.824219"/><stop stop-opacity="1" stop-color="rgb(7.296753%, 11.685181%, 47.549438%)" offset="0.832031"/><stop stop-opacity="1" stop-color="rgb(7.339478%, 11.743164%, 47.75238%)" offset="0.839844"/><stop stop-opacity="1" stop-color="rgb(7.382202%, 11.801147%, 47.953796%)" offset="0.847656"/><stop stop-opacity="1" stop-color="rgb(7.424927%, 11.859131%, 48.156738%)" offset="0.855469"/><stop stop-opacity="1" stop-color="rgb(7.469177%, 11.915588%, 48.35968%)" offset="0.863281"/><stop stop-opacity="1" stop-color="rgb(7.511902%, 11.973572%, 48.561096%)" offset="0.871094"/><stop stop-opacity="1" stop-color="rgb(7.565308%, 12.045288%, 48.814392%)" offset="0.878906"/><stop stop-opacity="1" stop-color="rgb(7.629395%, 12.132263%, 49.118042%)" offset="0.890625"/><stop stop-opacity="1" stop-color="rgb(7.693481%, 12.219238%, 49.421692%)" offset="0.902344"/><stop stop-opacity="1" stop-color="rgb(7.748413%, 12.29248%, 49.673462%)" offset="0.914062"/><stop stop-opacity="1" stop-color="rgb(7.791138%, 12.350464%, 49.876404%)" offset="0.921875"/><stop stop-opacity="1" stop-color="rgb(7.833862%, 12.408447%, 50.079346%)" offset="0.929688"/><stop stop-opacity="1" stop-color="rgb(7.876587%, 12.464905%, 50.280762%)" offset="0.9375"/><stop stop-opacity="1" stop-color="rgb(7.929993%, 12.536621%, 50.534058%)" offset="0.945312"/><stop stop-opacity="1" stop-color="rgb(7.984924%, 12.609863%, 50.787354%)" offset="0.957031"/><stop stop-opacity="1" stop-color="rgb(8.027649%, 12.667847%, 50.98877%)" offset="0.964844"/><stop stop-opacity="1" stop-color="rgb(8.081055%, 12.739563%, 51.242065%)" offset="0.972656"/><stop stop-opacity="1" stop-color="rgb(8.13446%, 12.812805%, 51.495361%)" offset="0.984375"/><stop stop-opacity="1" stop-color="rgb(8.177185%, 12.870789%, 51.698303%)" offset="0.992188"/><stop stop-opacity="1" stop-color="rgb(8.198547%, 12.89978%, 51.799011%)" offset="1"/></radialGradient><clipPath id="892d3c252e"><path d="M 545.019531 263.675781 L 605.472656 263.675781 L 605.472656 441 L 545.019531 441 Z M 545.019531 263.675781 " clip-rule="nonzero"/></clipPath></defs><g clip-path="url(#e07a966f35)"><g clip-path="url(#c5ece3a8db)"><path stroke-linecap="butt" transform="matrix(0, -0.795412, 0.795412, 0, 496.424498, 497.457596)" fill="none" stroke-linejoin="miter" d="M 83.624866 0.00161274 L 288.712276 0.00161274 C 307.644101 0.00161274 324.228478 12.667029 329.218033 30.92605 L 363.894459 157.904332 C 365.90796 165.26589 364.365913 173.143101 359.73977 179.20325 C 355.108717 185.268309 347.914132 188.828769 340.28247 188.828769 L 32.054672 188.828769 C 24.427921 188.828769 17.233336 185.268309 12.602283 179.20325 C 7.971229 173.143101 6.434093 165.26589 8.447594 157.904332 L 43.12402 30.92605 C 48.113575 12.667029 64.697952 0.00161274 83.624866 0.00161274 Z M 83.624866 0.00161274 " stroke="url(#7176f9486d)" stroke-width="47.145397" stroke-miterlimit="4"/></g></g><g clip-path="url(#892d3c252e)"><path fill="#121c74" d="M 597.460938 271.355469 L 599.492188 312.53125 C 599.917969 321.140625 596.308594 329.457031 589.734375 335.007812 C 582.617188 341.019531 578.992188 350.222656 580.152344 359.484375 C 583.601562 386.996094 586.011719 422.777344 586.011719 427.320312 C 586.011719 434.820312 579.953125 440.898438 572.480469 440.898438 C 565.003906 440.898438 558.945312 434.820312 558.945312 427.320312 C 558.945312 422.78125 561.355469 387.039062 564.800781 359.53125 C 565.953125 350.304688 562.355469 341.136719 555.289062 335.125 L 555.148438 335.007812 C 548.621094 329.457031 545.039062 321.167969 545.464844 312.59375 L 547.496094 271.355469 C 547.613281 268.980469 549.570312 267.113281 551.941406 267.113281 C 554.402344 267.113281 556.394531 269.109375 556.394531 271.578125 L 556.394531 305.921875 C 556.394531 308.871094 558.777344 311.261719 561.71875 311.261719 C 564.660156 311.261719 567.042969 308.871094 567.042969 305.921875 L 567.042969 272.566406 C 567.042969 269.554688 569.476562 267.113281 572.480469 267.113281 C 575.480469 267.113281 577.917969 269.554688 577.917969 272.566406 L 577.917969 305.921875 C 577.917969 308.871094 580.300781 311.261719 583.242188 311.261719 C 586.183594 311.261719 588.566406 308.871094 588.566406 305.921875 L 588.566406 271.578125 C 588.566406 269.109375 590.558594 267.113281 593.015625 267.113281 C 595.386719 267.113281 597.34375 268.980469 597.460938 271.355469 Z M 647.375 264.03125 L 647.375 263.976562 C 647.296875 263.976562 647.203125 264.003906 647.125 264.007812 C 647.015625 264 646.917969 263.976562 646.808594 263.976562 C 646.429688 263.976562 646.09375 264.117188 645.734375 264.183594 C 645.71875 264.1875 645.707031 264.1875 645.691406 264.191406 C 645.070312 264.3125 644.496094 264.503906 643.957031 264.800781 C 636.320312 268.390625 623.355469 286.855469 618.339844 325.46875 C 616.707031 338.035156 617.214844 348.660156 618.117188 356.109375 C 618.980469 363.1875 622.996094 369.480469 628.9375 373.390625 C 631.820312 375.289062 633.460938 378.601562 633.226562 382.054688 L 630.355469 428.878906 C 629.886719 436.003906 636.101562 441.9375 643.457031 440.746094 C 648.957031 439.851562 652.8125 434.753906 652.8125 429.164062 L 652.8125 270 C 652.8125 266.867188 650.417969 264.324219 647.375 264.03125 Z M 647.375 264.03125 " fill-opacity="1" fill-rule="nonzero"/></g><g fill="#050a30" fill-opacity="1"><g transform="translate(74.999999, 373.788112)"><g><path d="M 64.828125 -48.203125 L 82.640625 -166.21875 L 118.96875 -166.21875 L 118.96875 0 L 94.265625 0 L 94.265625 -119.203125 L 76.21875 0 L 51.53125 0 L 32.0625 -117.546875 L 32.0625 0 L 9.265625 0 L 9.265625 -166.21875 L 45.59375 -166.21875 Z M 64.828125 -48.203125 "/></g></g></g><g fill="#050a30" fill-opacity="1"><g transform="translate(203.454982, 373.788112)"><g><path d="M 35.625 -96.171875 L 71.46875 -96.171875 L 71.46875 -72.421875 L 35.625 -72.421875 L 35.625 -23.75 L 80.734375 -23.75 L 80.734375 0 L 9.5 0 L 9.5 -166.21875 L 80.734375 -166.21875 L 80.734375 -142.46875 L 35.625 -142.46875 Z M 35.625 -96.171875 "/></g></g></g><g fill="#050a30" fill-opacity="1"><g transform="translate(290.832858, 373.788112)"><g><path d="M 32.765625 -120.390625 L 32.765625 0 L 9.265625 0 L 9.265625 -166.21875 L 42.03125 -166.21875 L 68.859375 -66.71875 L 68.859375 -166.21875 L 92.125 -166.21875 L 92.125 0 L 65.296875 0 Z M 32.765625 -120.390625 "/></g></g></g><g fill="#050a30" fill-opacity="1"><g transform="translate(392.219688, 373.788112)"><g><path d="M 34.4375 -166.21875 L 34.4375 -38 C 34.4375 -31.976562 35.660156 -27.78125 38.109375 -25.40625 C 40.566406 -23.03125 43.851562 -21.84375 47.96875 -21.84375 C 52.082031 -21.84375 55.363281 -23.03125 57.8125 -25.40625 C 60.269531 -27.78125 61.5 -31.976562 61.5 -38 L 61.5 -166.21875 L 86.203125 -166.21875 L 86.203125 -39.65625 C 86.203125 -26.195312 82.914062 -15.863281 76.34375 -8.65625 C 69.769531 -1.457031 60.070312 2.140625 47.25 2.140625 C 34.425781 2.140625 24.726562 -1.457031 18.15625 -8.65625 C 11.59375 -15.863281 8.3125 -26.195312 8.3125 -39.65625 L 8.3125 -166.21875 Z M 34.4375 -166.21875 "/></g></g></g><g fill="#070e42" fill-opacity="1"><g transform="translate(486.735965, 373.788112)"><g/></g></g><g fill="#121c74" fill-opacity="1"><g transform="translate(110.246872, 558.505319)"><g><path d="M 35.625 -92.375 L 69.34375 -92.375 L 69.34375 -68.625 L 35.625 -68.625 L 35.625 0 L 9.5 0 L 9.5 -166.21875 L 78.59375 -166.21875 L 78.59375 -142.46875 L 35.625 -142.46875 Z M 35.625 -92.375 "/></g></g></g><g fill="#121c74" fill-opacity="1"><g transform="translate(191.926199, 558.505319)"><g><path d="M 94.03125 0 L 67.671875 0 L 63.15625 -30.15625 L 31.109375 -30.15625 L 26.59375 0 L 2.609375 0 L 29.203125 -166.21875 L 67.4375 -166.21875 Z M 34.4375 -52.71875 L 59.59375 -52.71875 L 47.015625 -136.765625 Z M 34.4375 -52.71875 "/></g></g></g><g fill="#121c74" fill-opacity="1"><g transform="translate(288.564236, 558.505319)"><g><path d="M 85.25 -61.96875 L 85.25 -39.890625 C 85.25 -26.429688 81.960938 -16.097656 75.390625 -8.890625 C 68.816406 -1.691406 59.117188 1.90625 46.296875 1.90625 C 33.472656 1.90625 23.773438 -1.691406 17.203125 -8.890625 C 10.640625 -16.097656 7.359375 -26.429688 7.359375 -39.890625 L 7.359375 -126.328125 C 7.359375 -139.785156 10.640625 -150.113281 17.203125 -157.3125 C 23.773438 -164.507812 33.472656 -168.109375 46.296875 -168.109375 C 59.117188 -168.109375 68.816406 -164.507812 75.390625 -157.3125 C 81.960938 -150.113281 85.25 -139.785156 85.25 -126.328125 L 85.25 -110.171875 L 60.546875 -110.171875 L 60.546875 -127.984375 C 60.546875 -134.003906 59.316406 -138.238281 56.859375 -140.6875 C 54.410156 -143.144531 51.128906 -144.375 47.015625 -144.375 C 42.898438 -144.375 39.613281 -143.144531 37.15625 -140.6875 C 34.707031 -138.238281 33.484375 -134.003906 33.484375 -127.984375 L 33.484375 -38.234375 C 33.484375 -32.210938 34.707031 -28.015625 37.15625 -25.640625 C 39.613281 -23.265625 42.898438 -22.078125 47.015625 -22.078125 C 51.128906 -22.078125 54.410156 -23.265625 56.859375 -25.640625 C 59.316406 -28.015625 60.546875 -32.210938 60.546875 -38.234375 L 60.546875 -61.96875 Z M 85.25 -61.96875 "/></g></g></g><g fill="#121c74" fill-opacity="1"><g transform="translate(380.216036, 558.505319)"><g><path d="M 9.5 -166.21875 L 35.625 -166.21875 L 35.625 0 L 9.5 0 Z M 9.5 -166.21875 "/></g></g></g><g fill="#121c74" fill-opacity="1"><g transform="translate(425.329607, 558.505319)"><g><path d="M 9.5 -166.21875 L 35.625 -166.21875 L 35.625 -23.75 L 78.59375 -23.75 L 78.59375 0 L 9.5 0 Z M 9.5 -166.21875 "/></g></g></g><g fill="#121c74" fill-opacity="1"><g transform="translate(507.600902, 559.622378)"><g><path d="M 8.53125 -6.1875 L 8.53125 0 L 2.34375 0 L 2.34375 -6.1875 Z M 8.53125 -6.1875 "/></g></g></g><g fill="#121c74" fill-opacity="1"><g transform="translate(517.300308, 559.622378)"><g><path d="M 20.984375 -15.25 L 20.984375 -9.8125 C 20.984375 -6.5 20.171875 -3.957031 18.546875 -2.1875 C 16.929688 -0.414062 14.546875 0.46875 11.390625 0.46875 C 8.234375 0.46875 5.847656 -0.414062 4.234375 -2.1875 C 2.617188 -3.957031 1.8125 -6.5 1.8125 -9.8125 L 1.8125 -31.09375 C 1.8125 -34.40625 2.617188 -36.945312 4.234375 -38.71875 C 5.847656 -40.488281 8.234375 -41.375 11.390625 -41.375 C 14.546875 -41.375 16.929688 -40.488281 18.546875 -38.71875 C 20.171875 -36.945312 20.984375 -34.40625 20.984375 -31.09375 L 20.984375 -27.109375 L 14.90625 -27.109375 L 14.90625 -31.5 C 14.90625 -32.976562 14.601562 -34.019531 14 -34.625 C 13.394531 -35.226562 12.585938 -35.53125 11.578125 -35.53125 C 10.554688 -35.53125 9.742188 -35.226562 9.140625 -34.625 C 8.535156 -34.019531 8.234375 -32.976562 8.234375 -31.5 L 8.234375 -9.40625 C 8.234375 -7.925781 8.535156 -6.894531 9.140625 -6.3125 C 9.742188 -5.726562 10.554688 -5.4375 11.578125 -5.4375 C 12.585938 -5.4375 13.394531 -5.726562 14 -6.3125 C 14.601562 -6.894531 14.90625 -7.925781 14.90625 -9.40625 L 14.90625 -15.25 Z M 20.984375 -15.25 "/></g></g></g><g fill="#121c74" fill-opacity="1"><g transform="translate(538.685857, 559.622378)"><g><path d="M 8.234375 -9.40625 C 8.234375 -7.925781 8.535156 -6.882812 9.140625 -6.28125 C 9.742188 -5.675781 10.554688 -5.375 11.578125 -5.375 C 12.585938 -5.375 13.394531 -5.675781 14 -6.28125 C 14.601562 -6.882812 14.90625 -7.925781 14.90625 -9.40625 L 14.90625 -31.5 C 14.90625 -32.976562 14.601562 -34.019531 14 -34.625 C 13.394531 -35.226562 12.585938 -35.53125 11.578125 -35.53125 C 10.554688 -35.53125 9.742188 -35.226562 9.140625 -34.625 C 8.535156 -34.019531 8.234375 -32.976562 8.234375 -31.5 Z M 1.8125 -31.09375 C 1.8125 -34.40625 2.648438 -36.945312 4.328125 -38.71875 C 6.003906 -40.488281 8.421875 -41.375 11.578125 -41.375 C 14.722656 -41.375 17.132812 -40.488281 18.8125 -38.71875 C 20.488281 -36.945312 21.328125 -34.40625 21.328125 -31.09375 L 21.328125 -9.8125 C 21.328125 -6.5 20.488281 -3.957031 18.8125 -2.1875 C 17.132812 -0.414062 14.722656 0.46875 11.578125 0.46875 C 8.421875 0.46875 6.003906 -0.414062 4.328125 -2.1875 C 2.648438 -3.957031 1.8125 -6.5 1.8125 -9.8125 Z M 1.8125 -31.09375 "/></g></g></g><g fill="#121c74" fill-opacity="1"><g transform="translate(560.655712, 559.622378)"><g><path d="M 15.953125 -11.859375 L 20.34375 -40.90625 L 29.28125 -40.90625 L 29.28125 0 L 23.203125 0 L 23.203125 -29.328125 L 18.765625 0 L 12.6875 0 L 7.890625 -28.921875 L 7.890625 0 L 2.28125 0 L 2.28125 -40.90625 L 11.21875 -40.90625 Z M 15.953125 -11.859375 "/></g></g></g><g fill="#121c74" fill-opacity="1"><g transform="translate(591.098012, 559.622378)"><g><path d="M 8.53125 -6.1875 L 8.53125 0 L 2.34375 0 L 2.34375 -6.1875 Z M 8.53125 -6.1875 "/></g></g></g><g fill="#121c74" fill-opacity="1"><g transform="translate(600.797419, 559.622378)"><g><path d="M 15.953125 -11.859375 L 20.34375 -40.90625 L 29.28125 -40.90625 L 29.28125 0 L 23.203125 0 L 23.203125 -29.328125 L 18.765625 0 L 12.6875 0 L 7.890625 -28.921875 L 7.890625 0 L 2.28125 0 L 2.28125 -40.90625 L 11.21875 -40.90625 Z M 15.953125 -11.859375 "/></g></g></g><g fill="#121c74" fill-opacity="1"><g transform="translate(631.239726, 559.622378)"><g><path d="M 23.78125 -40.90625 L 17.0625 -21.03125 L 24.25 0 L 17.46875 0 L 12.21875 -16.1875 L 6.890625 0 L 0.875 0 L 8.0625 -21.03125 L 1.34375 -40.90625 L 8 -40.90625 L 12.859375 -25.828125 L 17.828125 -40.90625 Z M 23.78125 -40.90625 "/></g></g></g></svg>